<svg width="1097" height="576" viewBox="0 0 1097 576" fill="none" xmlns="http://www.w3.org/2000/svg">
<path opacity="0.1" d="M548.5 503.091C851.428 503.091 1097 499.115 1097 494.211C1097 489.307 851.428 485.332 548.5 485.332C245.572 485.332 0 489.307 0 494.211C0 499.115 245.572 503.091 548.5 503.091Z" fill="#6C63FF"/>
<path opacity="0.1" d="M548.5 576C851.428 576 1097 572.025 1097 567.121C1097 562.217 851.428 558.241 548.5 558.241C245.572 558.241 0 562.217 0 567.121C0 572.025 245.572 576 548.5 576Z" fill="#6C63FF"/>
<path opacity="0.1" d="M548.5 350.928C851.428 350.928 1097 346.952 1097 342.048C1097 337.144 851.428 333.169 548.5 333.169C245.572 333.169 0 337.144 0 342.048C0 346.952 245.572 350.928 548.5 350.928Z" fill="#6C63FF"/>
<path opacity="0.1" d="M548.5 427.004C851.428 427.004 1097 423.029 1097 418.125C1097 413.221 851.428 409.246 548.5 409.246C245.572 409.246 0 413.221 0 418.125C0 423.029 245.572 427.004 548.5 427.004Z" fill="#6C63FF"/>
<path opacity="0.1" d="M952.257 182.116C948.683 181.44 944.99 181.845 941.647 183.278C939.64 184.173 937.468 184.636 935.271 184.636C933.074 184.636 930.902 184.173 928.895 183.278C926.521 182.235 923.949 181.72 921.357 181.77C918.764 181.821 916.214 182.434 913.882 183.569C912.553 184.276 911.072 184.647 909.568 184.651C903.482 184.651 898.428 178.518 897.377 170.43C898.574 169.536 899.593 168.424 900.379 167.153C903.943 161.4 909.458 157.702 915.663 157.702C921.869 157.702 927.314 161.35 930.877 167.043C931.938 168.762 933.426 170.178 935.196 171.151C936.966 172.124 938.957 172.621 940.976 172.595H941.136C946.031 172.545 950.225 176.433 952.257 182.116Z" fill="#6C63FF"/>
<path opacity="0.1" d="M970.783 156.71L960.954 162.943L966.96 152.08C965.268 150.732 963.176 149.988 961.014 149.965H960.854C960.184 149.974 959.514 149.924 958.852 149.815L955.469 151.929L956.901 149.324C954.536 148.504 952.492 146.953 951.065 144.894L945.06 148.682L948.823 141.827C945.34 137.638 940.636 135.073 935.471 135.073C929.266 135.073 923.75 138.761 920.177 144.513C919.124 146.233 917.635 147.644 915.861 148.601C914.087 149.559 912.092 150.029 910.078 149.965H909.748C902.902 149.965 897.356 157.732 897.356 167.313C897.356 176.894 902.902 184.671 909.748 184.671C911.251 184.661 912.731 184.29 914.062 183.589C916.393 182.451 918.943 181.835 921.535 181.783C924.128 181.731 926.701 182.245 929.075 183.288C931.08 184.19 933.253 184.656 935.451 184.656C937.649 184.656 939.822 184.19 941.827 183.288C944.183 182.268 946.729 181.766 949.295 181.817C951.861 181.867 954.386 182.468 956.7 183.579C958.017 184.268 959.479 184.633 960.964 184.641C967.811 184.641 973.356 176.864 973.356 167.283C973.397 163.598 972.512 159.963 970.783 156.71Z" fill="#6C63FF"/>
<path opacity="0.1" d="M462.981 113.135C460.477 112.661 457.888 112.944 455.544 113.947C454.141 114.574 452.622 114.899 451.085 114.899C449.549 114.899 448.029 114.574 446.626 113.947C444.966 113.217 443.167 112.857 441.353 112.894C439.54 112.93 437.757 113.361 436.127 114.157C435.199 114.642 434.17 114.899 433.124 114.909C428.87 114.909 425.327 110.619 424.586 104.957C425.435 104.334 426.159 103.555 426.718 102.662C429.21 98.6533 433.074 96.0476 437.418 96.0476C441.762 96.0476 445.575 98.6032 448.068 102.582C448.812 103.786 449.855 104.777 451.095 105.459C452.335 106.14 453.73 106.489 455.144 106.47H455.254C458.617 106.45 461.55 109.176 462.981 113.135Z" fill="#6C63FF"/>
<path opacity="0.1" d="M475.943 95.366L469.067 99.7356L473.241 92.129C472.061 91.1832 470.598 90.661 469.087 90.6457H468.967C468.491 90.6542 468.015 90.6173 467.545 90.5355L465.213 92.0187L466.214 90.1947C464.561 89.6189 463.132 88.5352 462.131 87.0979L457.957 89.7437L460.599 84.9533C459.489 83.5185 458.075 82.3488 456.458 81.5289C454.841 80.709 453.062 80.2595 451.251 80.2129C446.907 80.2129 443.043 82.7985 440.551 86.8273C439.812 88.0319 438.769 89.0195 437.526 89.6901C436.283 90.3607 434.885 90.6903 433.474 90.6457H433.244C428.45 90.6457 424.566 96.0776 424.566 102.792C424.566 109.507 428.45 114.939 433.244 114.939C434.292 114.931 435.322 114.669 436.247 114.177C437.877 113.385 439.659 112.957 441.47 112.923C443.281 112.888 445.078 113.248 446.736 113.977C448.148 114.621 449.679 114.963 451.231 114.979C452.758 114.976 454.268 114.655 455.665 114.037C457.313 113.323 459.095 112.971 460.891 113.005C462.687 113.04 464.454 113.46 466.074 114.237C467.001 114.723 468.031 114.978 469.077 114.979C473.861 114.979 477.745 109.537 477.745 102.832C477.785 100.231 477.165 97.6619 475.943 95.366Z" fill="#6C63FF"/>
<path opacity="0.1" d="M119.178 239.386C121.679 238.913 124.264 239.195 126.605 240.197C128.009 240.825 129.53 241.15 131.069 241.15C132.607 241.15 134.128 240.825 135.533 240.197C137.193 239.468 138.992 239.109 140.805 239.143C142.617 239.178 144.401 239.606 146.032 240.398C146.957 240.891 147.987 241.153 149.035 241.16C153.289 241.16 156.832 236.86 157.563 231.198C156.715 230.577 155.994 229.798 155.441 228.903C152.939 224.894 149.075 222.298 144.741 222.298C140.407 222.298 136.584 224.844 134.082 228.833C133.338 230.036 132.297 231.026 131.059 231.707C129.821 232.388 128.428 232.738 127.015 232.721H126.905C123.532 232.741 120.589 235.457 119.178 239.386Z" fill="#6C63FF"/>
<path opacity="0.1" d="M106.206 221.647L113.093 226.016L108.909 218.42C110.092 217.471 111.557 216.945 113.072 216.926H113.183C113.662 216.933 114.14 216.9 114.614 216.826L116.946 218.299L115.945 216.485C117.595 215.908 119.02 214.825 120.019 213.389L124.193 216.035L121.59 211.234C122.7 209.801 124.115 208.632 125.732 207.814C127.349 206.996 129.128 206.548 130.939 206.504C135.273 206.504 139.146 209.089 141.639 213.118C142.376 214.321 143.418 215.308 144.659 215.978C145.9 216.649 147.296 216.979 148.705 216.936H148.945C153.73 216.936 157.613 222.378 157.613 229.083C157.613 235.788 153.73 241.23 148.945 241.23C147.898 241.225 146.868 240.967 145.942 240.478C144.313 239.682 142.529 239.251 140.716 239.214C138.903 239.178 137.103 239.537 135.443 240.268C134.037 240.918 132.508 241.259 130.959 241.27C129.428 241.268 127.915 240.948 126.515 240.328C124.868 239.614 123.087 239.262 121.293 239.297C119.499 239.331 117.733 239.751 116.115 240.528C115.189 241.014 114.159 241.269 113.113 241.27C108.318 241.27 104.435 235.838 104.435 229.123C104.388 226.522 104.997 223.95 106.206 221.647Z" fill="#6C63FF"/>
<path d="M664.916 491.335C667.528 486.484 664.566 480.551 661.163 476.232C657.76 471.912 653.596 467.412 653.686 461.91C653.816 454.003 662.204 449.323 668.9 445.134C673.872 442.012 678.458 438.311 682.562 434.109C684.278 432.492 685.698 430.586 686.756 428.477C688.147 425.39 688.107 421.863 688.017 418.455C687.73 407.17 687.173 395.892 686.346 384.621" stroke="#3F3D56" stroke-width="4" stroke-miterlimit="10"/>
<path d="M699.087 384.06C698.991 381.993 698.376 379.983 697.301 378.216C696.225 376.449 694.722 374.981 692.932 373.948L690.169 379.41L690.259 372.795C687.754 372.057 685.079 372.134 682.621 373.017C680.162 373.9 678.047 375.541 676.582 377.706C675.116 379.87 674.375 382.445 674.465 385.058C674.556 387.672 675.474 390.189 677.086 392.246C678.698 394.303 680.922 395.794 683.435 396.504C685.949 397.214 688.623 397.105 691.071 396.194C693.519 395.283 695.615 393.617 697.056 391.436C698.497 389.255 699.208 386.672 699.087 384.06Z" fill="#805AD5"/>
<path d="M677.107 467.563C675.868 469.975 673.869 471.911 671.42 473.071C668.971 474.231 666.208 474.55 663.56 473.98C660.911 473.409 658.524 471.98 656.768 469.914C655.012 467.849 653.985 465.261 653.846 462.552C653.754 460.843 654.027 459.135 654.647 457.541C655.554 455.216 657.144 453.22 659.207 451.818C661.27 450.417 663.709 449.674 666.202 449.688C668.695 449.702 671.125 450.472 673.172 451.897C675.219 453.323 676.787 455.336 677.668 457.671L669.971 463.945L678.439 461.94C678.448 463.894 677.992 465.821 677.107 467.563Z" fill="#805AD5"/>
<path d="M671.022 443.611C667.998 443.753 665.027 442.776 662.677 440.866C660.327 438.956 658.761 436.247 658.278 433.254C657.796 430.262 658.43 427.197 660.061 424.643C661.691 422.089 664.203 420.225 667.118 419.408L667.048 424.489L669.841 418.957C673.106 418.804 676.298 419.956 678.714 422.16C681.131 424.364 682.575 427.438 682.727 430.708C682.88 433.977 681.729 437.173 679.528 439.593C677.328 442.013 674.257 443.458 670.992 443.611H671.022Z" fill="#805AD5"/>
<path d="M700.939 423.677C699.029 423.775 697.122 423.428 695.369 422.66C693.616 421.893 692.066 420.728 690.84 419.257C689.615 417.786 688.749 416.05 688.31 414.186C687.872 412.321 687.872 410.38 688.313 408.516C688.753 406.652 689.621 404.917 690.847 403.447C692.073 401.977 693.625 400.813 695.378 400.047C697.132 399.282 699.039 398.936 700.949 399.036C702.86 399.136 704.72 399.681 706.384 400.626L704.212 406.639L708.646 402.25C710.439 403.896 711.706 406.037 712.286 408.403C712.866 410.769 712.733 413.254 711.904 415.544C711.076 417.835 709.588 419.829 707.63 421.274C705.671 422.719 703.329 423.552 700.899 423.666L700.939 423.677Z" fill="#805AD5"/>
<path d="M697.426 387.347C694.583 387.658 691.821 388.54 688.958 388.72C686.096 388.901 682.953 388.209 681.171 385.994C680.333 384.704 679.571 383.365 678.889 381.986C678.111 380.769 677.045 379.764 675.786 379.059C674.989 380.623 674.534 382.338 674.452 384.092C674.371 385.846 674.663 387.596 675.311 389.228C675.959 390.859 676.947 392.333 678.21 393.551C679.472 394.769 680.98 395.704 682.631 396.292C684.283 396.88 686.042 397.109 687.789 396.962C689.536 396.816 691.232 396.297 692.763 395.442C694.294 394.587 695.625 393.414 696.667 392.003C697.71 390.591 698.439 388.973 698.807 387.257C698.357 387.267 697.886 387.297 697.426 387.347Z" fill="#6B46C1"/>
<path d="M700.939 423.677C698.815 423.778 696.7 423.326 694.802 422.366C692.903 421.406 691.285 419.97 690.105 418.199C688.925 416.427 688.224 414.379 688.068 412.255C687.913 410.132 688.309 408.004 689.218 406.079C690.195 406.739 691.035 407.583 691.691 408.564C692.427 409.969 693.242 411.331 694.133 412.643C696.055 414.898 699.338 415.649 702.31 415.499C705.283 415.349 708.156 414.497 711.118 414.246C711.529 414.246 711.939 414.186 712.359 414.176C711.746 416.788 710.3 419.128 708.239 420.843C706.178 422.557 703.615 423.552 700.939 423.677Z" fill="#6B46C1"/>
<path d="M671.022 443.61C668.919 443.709 666.826 443.267 664.943 442.325C663.06 441.384 661.449 439.976 660.263 438.234C659.078 436.493 658.358 434.476 658.172 432.377C657.986 430.277 658.34 428.165 659.201 426.242C660.216 426.912 661.102 427.761 661.813 428.748C662.62 430.186 663.513 431.575 664.486 432.907C666.558 435.222 670.061 436.044 673.204 435.913C676.347 435.783 679.209 435.102 682.212 434.911C681.465 437.336 679.99 439.472 677.988 441.029C675.985 442.585 673.553 443.486 671.022 443.61Z" fill="#6B46C1"/>
<path d="M677.107 467.563C675.868 469.975 673.869 471.911 671.42 473.071C668.971 474.231 666.208 474.55 663.56 473.98C660.911 473.409 658.524 471.981 656.768 469.915C655.012 467.849 653.985 465.261 653.846 462.552C653.754 460.844 654.027 459.135 654.647 457.541C655.662 458.208 656.572 459.022 657.349 459.956C658.52 461.379 659.291 462.963 660.652 464.336C663.165 466.811 667.238 467.834 670.852 467.924C672.942 467.93 675.031 467.81 677.107 467.563Z" fill="#6B46C1"/>
<path d="M54.3595 419.177C56.9719 414.326 54.0092 408.393 50.6061 404.074C47.203 399.754 43.0392 395.234 43.1292 389.752C43.2594 381.845 51.647 377.165 58.3431 372.976C63.3158 369.854 67.9018 366.153 72.0056 361.952C73.7217 360.334 75.1412 358.428 76.1994 356.319C77.5907 353.233 77.5506 349.705 77.4605 346.297C77.1669 335.013 76.6098 323.735 75.789 312.463" stroke="#3F3D56" stroke-width="4" stroke-miterlimit="10"/>
<path d="M88.5306 311.902C88.434 309.835 87.8195 307.826 86.7438 306.059C85.6682 304.291 84.1658 302.824 82.375 301.79L79.6125 307.252L79.7026 300.638C77.1973 299.899 74.5223 299.977 72.0639 300.859C69.6055 301.742 67.4908 303.384 66.025 305.548C64.5592 307.713 63.8181 310.287 63.9088 312.901C63.9995 315.514 64.9171 318.031 66.5294 320.089C68.1417 322.146 70.3651 323.637 72.8787 324.347C75.3924 325.056 78.0662 324.948 80.5143 324.037C82.9625 323.126 85.0582 321.46 86.499 319.279C87.9399 317.098 88.6513 314.515 88.5306 311.902Z" fill="#6C63FF"/>
<path d="M66.5506 395.405C65.3112 397.817 63.3122 399.753 60.8632 400.913C58.4141 402.073 55.6515 402.392 53.0029 401.822C50.3542 401.251 47.9672 399.823 46.2113 397.757C44.4554 395.691 43.4285 393.103 43.2894 390.394C43.1973 388.686 43.4703 386.977 44.0902 385.383C44.9976 383.058 46.5876 381.063 48.6505 379.661C50.7134 378.259 53.1522 377.516 55.6454 377.53C58.1385 377.544 60.5688 378.315 62.6157 379.74C64.6627 381.165 66.23 383.178 67.1112 385.513L59.4141 391.787L67.8819 389.783C67.8916 391.736 67.4352 393.664 66.5506 395.405Z" fill="#6C63FF"/>
<path d="M60.4651 371.452C57.4413 371.595 54.4709 370.618 52.1205 368.708C49.7702 366.798 48.2043 364.088 47.7217 361.096C47.2391 358.104 47.8735 355.038 49.5039 352.485C51.1343 349.931 53.6466 348.067 56.5616 347.25L56.4915 352.331L59.284 346.799C60.9008 346.723 62.5166 346.967 64.0391 347.516C65.5617 348.066 66.9613 348.91 68.158 350.002C69.3546 351.093 70.3249 352.409 71.0134 353.876C71.7019 355.342 72.0952 356.931 72.1708 358.549C72.2464 360.168 72.0028 361.786 71.4539 363.31C70.905 364.835 70.0616 366.236 68.9719 367.434C67.8821 368.633 66.5673 369.604 65.1026 370.294C63.6378 370.983 62.0518 371.377 60.4351 371.452H60.4651Z" fill="#6C63FF"/>
<path d="M90.3824 351.519C88.472 351.618 86.5649 351.27 84.8121 350.503C83.0593 349.736 81.509 348.57 80.2838 347.1C79.0587 345.629 78.1925 343.892 77.7537 342.028C77.315 340.164 77.3158 338.223 77.7561 336.359C78.1964 334.495 79.0641 332.759 80.2905 331.289C81.5168 329.819 83.0681 328.655 84.8216 327.89C86.575 327.124 88.4824 326.778 90.3927 326.878C92.3029 326.979 94.1636 327.523 95.8273 328.468L93.6554 334.482L98.0894 330.092C99.8828 331.738 101.149 333.879 101.729 336.245C102.309 338.611 102.176 341.096 101.348 343.387C100.519 345.677 99.0318 347.671 97.0733 349.116C95.1147 350.562 92.7727 351.394 90.3423 351.509L90.3824 351.519Z" fill="#6C63FF"/>
<path opacity="0.1" d="M86.8692 315.19C84.0266 315.5 81.2641 316.382 78.4015 316.563C75.5389 316.743 72.396 316.051 70.6144 313.837C69.7765 312.546 69.0145 311.207 68.3323 309.828C67.5542 308.612 66.4884 307.606 65.2295 306.901C64.4324 308.465 63.9777 310.181 63.8958 311.934C63.8139 313.688 64.1067 315.439 64.7546 317.07C65.4026 318.701 66.3908 320.175 67.6531 321.393C68.9155 322.612 70.423 323.546 72.0748 324.134C73.7267 324.723 75.4849 324.951 77.232 324.804C78.9792 324.658 80.6749 324.14 82.2061 323.285C83.7372 322.429 85.0684 321.257 86.1107 319.845C87.1531 318.434 87.8826 316.816 88.2505 315.099C87.8001 315.109 87.3296 315.139 86.8692 315.19Z" fill="black"/>
<path opacity="0.1" d="M90.3823 351.519C88.2579 351.62 86.1435 351.168 84.2451 350.208C82.3466 349.248 80.7286 347.812 79.5487 346.04C78.3687 344.269 77.6668 342.221 77.5113 340.097C77.3559 337.973 77.7522 335.845 78.6616 333.92C79.6384 334.581 80.478 335.425 81.1339 336.406C81.87 337.811 82.6854 339.173 83.5761 340.485C85.4979 342.74 88.7809 343.491 91.7536 343.341C94.7263 343.191 97.5989 342.339 100.562 342.088C100.972 342.088 101.382 342.028 101.803 342.018C101.19 344.63 99.7432 346.97 97.6824 348.684C95.6215 350.399 93.0587 351.394 90.3823 351.519Z" fill="black"/>
<path opacity="0.1" d="M60.4651 371.453C58.3626 371.551 56.2699 371.109 54.3866 370.168C52.5032 369.227 50.8921 367.818 49.7067 366.077C48.5214 364.335 47.8014 362.318 47.6155 360.219C47.4295 358.12 47.7837 356.008 48.6444 354.084C49.6599 354.754 50.5452 355.603 51.2567 356.59C52.0638 358.029 52.9562 359.417 53.9292 360.749C56.0011 363.064 59.5043 363.886 62.6471 363.756C65.79 363.625 68.6526 362.944 71.6553 362.753C70.908 365.179 69.4331 367.314 67.431 368.871C65.4289 370.427 62.9968 371.329 60.4651 371.453Z" fill="black"/>
<path opacity="0.1" d="M66.5506 395.405C65.3112 397.817 63.3122 399.753 60.8632 400.913C58.4141 402.073 55.6515 402.392 53.0029 401.822C50.3542 401.251 47.9672 399.822 46.2113 397.756C44.4554 395.691 43.4285 393.103 43.2894 390.394C43.1973 388.685 43.4703 386.977 44.0902 385.383C45.1051 386.05 46.0158 386.864 46.7926 387.798C47.9637 389.221 48.7344 390.805 50.0956 392.178C52.6079 394.653 56.6816 395.675 60.2949 395.766C62.3855 395.772 64.4746 395.651 66.5506 395.405Z" fill="black"/>
<path d="M460.94 336.626C458.328 331.785 461.291 325.852 464.704 321.533C468.117 317.214 472.261 312.714 472.17 307.212C472.05 299.294 463.663 294.624 456.957 290.435C451.986 287.315 447.403 283.614 443.304 279.411C441.58 277.802 440.156 275.898 439.1 273.789C437.719 270.692 437.759 267.174 437.839 263.767C438.139 252.482 438.697 241.204 439.511 229.933" stroke="#3F3D56" stroke-width="4" stroke-miterlimit="10"/>
<path d="M426.779 229.362C426.874 227.295 427.486 225.286 428.56 223.519C429.634 221.752 431.135 220.283 432.925 219.25L435.687 224.712L435.607 218.097C436.923 217.714 438.292 217.549 439.661 217.606C442.095 217.72 444.44 218.553 446.401 220.002C448.362 221.45 449.85 223.448 450.677 225.743C451.504 228.038 451.633 230.527 451.047 232.895C450.462 235.263 449.188 237.404 447.387 239.048C445.586 240.691 443.339 241.763 440.93 242.128C438.521 242.493 436.057 242.134 433.852 241.097C431.646 240.061 429.797 238.392 428.538 236.304C427.279 234.215 426.667 231.799 426.779 229.362Z" fill="#805AD5"/>
<path d="M448.749 312.864C450.041 315.382 452.158 317.379 454.745 318.519C457.333 319.659 460.233 319.874 462.96 319.128C465.687 318.381 468.074 316.718 469.721 314.418C471.369 312.117 472.176 309.32 472.008 306.494C471.84 303.669 470.707 300.987 468.799 298.899C466.89 296.811 464.323 295.443 461.527 295.026C458.731 294.608 455.876 295.166 453.442 296.606C451.008 298.045 449.143 300.279 448.159 302.933L455.856 309.206L447.388 307.202C447.381 309.172 447.848 311.114 448.749 312.864Z" fill="#805AD5"/>
<path d="M454.835 288.912C457.859 289.058 460.832 288.083 463.185 286.174C465.537 284.264 467.105 281.554 467.589 278.561C468.073 275.568 467.439 272.501 465.809 269.946C464.178 267.391 461.664 265.527 458.748 264.709L458.808 269.79L456.016 264.258C452.752 264.097 449.558 265.241 447.136 267.438C444.715 269.636 443.264 272.706 443.104 275.974C443.034 277.397 443.213 278.822 443.634 280.183C444.373 282.617 445.846 284.763 447.852 286.326C449.857 287.889 452.296 288.792 454.835 288.912Z" fill="#805AD5"/>
<path d="M424.927 268.958C426.837 269.056 428.744 268.707 430.496 267.938C432.248 267.17 433.797 266.004 435.021 264.533C436.245 263.062 437.11 261.325 437.548 259.461C437.986 257.597 437.984 255.656 437.543 253.793C437.102 251.929 436.234 250.194 435.008 248.725C433.781 247.256 432.23 246.093 430.476 245.328C428.723 244.562 426.816 244.217 424.906 244.317C422.996 244.418 421.136 244.963 419.472 245.908L421.654 251.921L417.17 247.622C415.974 248.707 415.005 250.018 414.317 251.48C413.63 252.942 413.239 254.526 413.167 256.14C413.107 257.282 413.212 258.426 413.477 259.538C414.105 262.14 415.562 264.467 417.628 266.166C419.694 267.866 422.256 268.846 424.927 268.958Z" fill="#805AD5"/>
<path d="M428.441 232.649C431.283 232.96 434.046 233.842 436.898 234.022C439.751 234.202 442.904 233.511 444.695 231.296C445.53 230.005 446.289 228.667 446.967 227.287C447.749 226.071 448.818 225.066 450.08 224.361C450.879 225.925 451.335 227.642 451.417 229.396C451.5 231.151 451.208 232.903 450.559 234.535C449.911 236.167 448.923 237.642 447.659 238.861C446.396 240.08 444.887 241.015 443.234 241.603C441.581 242.191 439.822 242.418 438.073 242.27C436.325 242.123 434.629 241.603 433.098 240.746C431.566 239.889 430.236 238.714 429.194 237.3C428.153 235.887 427.425 234.267 427.059 232.549C427.51 232.559 427.97 232.599 428.441 232.649Z" fill="#6B46C1"/>
<path d="M424.927 268.959C427.051 269.056 429.164 268.603 431.06 267.642C432.957 266.681 434.574 265.246 435.753 263.475C436.933 261.704 437.635 259.658 437.791 257.535C437.948 255.413 437.554 253.285 436.648 251.36C435.668 252.021 434.825 252.865 434.166 253.846C433.43 255.25 432.614 256.612 431.723 257.924C429.812 260.179 426.529 260.931 423.556 260.781C420.583 260.63 417.711 259.779 414.748 259.528C414.338 259.528 413.917 259.468 413.507 259.458C414.118 262.07 415.565 264.411 417.626 266.126C419.687 267.841 422.25 268.835 424.927 268.959Z" fill="#6B46C1"/>
<path d="M454.835 288.912C456.938 289.014 459.032 288.573 460.917 287.633C462.802 286.693 464.415 285.284 465.601 283.541C466.786 281.799 467.506 279.781 467.691 277.681C467.876 275.58 467.519 273.467 466.655 271.544C465.641 272.211 464.759 273.061 464.053 274.05C463.246 275.488 462.354 276.877 461.381 278.209C459.299 280.524 455.805 281.346 452.653 281.215C449.5 281.085 446.647 280.404 443.644 280.213C444.388 282.641 445.862 284.779 447.865 286.336C449.867 287.893 452.302 288.793 454.835 288.912Z" fill="#6B46C1"/>
<path d="M448.749 312.864C450.195 315.656 452.652 317.789 455.617 318.828C458.581 319.867 461.83 319.733 464.7 318.453C467.569 317.173 469.842 314.845 471.054 311.943C472.265 309.042 472.325 305.786 471.219 302.842C470.2 303.504 469.289 304.318 468.517 305.258C467.346 306.681 466.515 308.264 465.214 309.637C462.692 312.113 458.628 313.135 455.005 313.225C452.914 313.226 450.826 313.106 448.749 312.864Z" fill="#6B46C1"/>
<path d="M780.441 338.881C835.698 338.881 880.492 294.03 880.492 238.702C880.492 183.375 835.698 138.523 780.441 138.523C725.185 138.523 680.39 183.375 680.39 238.702C680.39 294.03 725.185 338.881 780.441 338.881Z" fill="#3F3D56"/>
<path d="M823.391 264.539C819.907 261.051 811.53 255.79 807.376 253.825C802.582 251.52 800.82 251.56 797.427 254.016C794.604 256.02 792.773 257.954 789.53 257.243C786.287 256.531 779.861 251.681 773.645 245.477C767.43 239.274 762.605 232.88 761.914 229.582C761.224 226.285 763.126 224.491 765.147 221.665C767.59 218.268 767.66 216.504 765.338 211.703C763.336 207.544 758.141 199.176 754.628 195.668C751.115 192.16 750.354 192.932 748.432 193.664C746.454 194.494 744.555 195.5 742.757 196.67C739.274 199.005 737.322 200.95 735.951 203.876C734.58 206.803 733.028 212.234 741.005 226.456C746.89 237.335 754.344 247.286 763.126 255.99C771.848 264.803 781.821 272.28 792.723 278.179C806.915 286.196 812.35 284.603 815.273 283.24C818.196 281.877 820.138 279.943 822.46 276.425C823.631 274.626 824.636 272.724 825.462 270.742C826.123 268.818 826.904 268.036 823.391 264.539Z" fill="#319795"/>
<path opacity="0.1" d="M780.442 138.533C760.641 138.523 741.283 144.394 724.815 155.402C708.347 166.411 695.511 182.062 687.929 200.377C680.347 218.692 678.361 238.847 682.221 258.292C686.082 277.737 695.615 295.599 709.616 309.618C723.617 323.637 741.457 333.183 760.877 337.048C780.297 340.914 800.427 338.925 818.718 331.333C837.009 323.742 852.641 310.889 863.635 294.4C874.63 277.911 880.493 258.528 880.483 238.702C880.47 212.14 869.925 186.669 851.167 167.887C832.408 149.104 806.97 138.546 780.442 138.533ZM780.442 325.562C763.284 325.562 746.512 320.468 732.246 310.924C717.981 301.38 706.862 287.814 700.296 271.942C693.73 256.071 692.012 238.606 695.359 221.757C698.707 204.908 706.969 189.431 719.101 177.283C731.233 165.135 746.69 156.863 763.518 153.511C780.345 150.16 797.788 151.88 813.639 158.454C829.49 165.028 843.039 176.161 852.571 190.446C862.103 204.73 867.191 221.523 867.191 238.702C867.191 250.109 864.947 261.404 860.587 271.942C856.228 282.481 849.838 292.056 841.783 300.122C833.727 308.187 824.164 314.585 813.639 318.951C803.114 323.316 791.834 325.562 780.442 325.562Z" fill="black"/>
<path d="M550.582 491.044C605.839 491.044 650.633 446.193 650.633 390.865C650.633 335.538 605.839 290.686 550.582 290.686C495.325 290.686 450.531 335.538 450.531 390.865C450.531 446.193 495.325 491.044 550.582 491.044Z" fill="#3F3D56"/>
<path d="M607.484 360.599L577.526 391.116C577.474 391.166 577.432 391.227 577.403 391.294C577.375 391.361 577.36 391.433 577.36 391.507C577.36 391.58 577.375 391.652 577.403 391.719C577.432 391.786 577.474 391.847 577.526 391.897L598.546 414.276C599.048 414.784 599.39 415.428 599.529 416.129C599.667 416.831 599.595 417.557 599.323 418.218C599.05 418.878 598.588 419.443 597.996 419.842C597.404 420.241 596.707 420.456 595.993 420.46C595.033 420.458 594.112 420.076 593.431 419.397L572.522 397.099C572.415 396.993 572.271 396.934 572.122 396.934C571.972 396.934 571.828 396.993 571.721 397.099L566.627 402.25C564.541 404.386 562.049 406.083 559.299 407.241C556.549 408.399 553.595 408.996 550.612 408.995C547.572 408.981 544.565 408.36 541.767 407.169C538.97 405.979 536.437 404.241 534.317 402.06L529.423 397.049C529.316 396.943 529.172 396.884 529.022 396.884C528.872 396.884 528.729 396.943 528.622 397.049L507.763 419.297C507.427 419.634 507.029 419.901 506.59 420.083C506.151 420.265 505.681 420.359 505.206 420.359C504.73 420.359 504.26 420.265 503.821 420.083C503.382 419.901 502.984 419.634 502.648 419.297C502.311 418.962 502.043 418.563 501.86 418.124C501.677 417.684 501.583 417.213 501.583 416.737C501.583 416.261 501.677 415.789 501.86 415.35C502.043 414.91 502.311 414.511 502.648 414.176L523.587 391.847C523.68 391.738 523.731 391.6 523.731 391.456C523.731 391.313 523.68 391.174 523.587 391.066L493.63 360.549C493.553 360.471 493.455 360.418 493.348 360.397C493.241 360.376 493.129 360.386 493.029 360.428C492.928 360.47 492.842 360.541 492.781 360.632C492.721 360.723 492.689 360.83 492.689 360.94V422.003C492.697 424.364 493.637 426.625 495.304 428.294C496.971 429.964 499.23 430.905 501.587 430.913H599.547C601.904 430.905 604.163 429.964 605.83 428.294C607.497 426.625 608.437 424.364 608.445 422.003V360.99C608.45 360.876 608.419 360.764 608.358 360.668C608.297 360.572 608.207 360.498 608.102 360.455C607.997 360.412 607.881 360.403 607.77 360.429C607.659 360.455 607.559 360.514 607.484 360.599Z" fill="#319795"/>
<path d="M550.582 401.749C552.613 401.769 554.627 401.38 556.504 400.605C558.382 399.831 560.085 398.686 561.512 397.239L605.142 352.772C603.593 351.487 601.648 350.779 599.637 350.768H501.607C499.595 350.774 497.649 351.483 496.102 352.772L539.742 397.239C541.157 398.678 542.844 399.818 544.706 400.593C546.568 401.367 548.566 401.76 550.582 401.749Z" fill="#319795"/>
<path opacity="0.1" d="M549.321 290.696C529.52 290.686 510.162 296.557 493.694 307.565C477.227 318.573 464.39 334.225 456.808 352.54C449.226 370.854 447.24 391.009 451.1 410.455C454.961 429.9 464.494 447.762 478.496 461.781C492.497 475.8 510.336 485.346 529.756 489.211C549.177 493.076 569.306 491.087 587.597 483.496C605.888 475.904 621.52 463.051 632.514 446.563C643.509 430.074 649.372 410.691 649.362 390.865C649.349 364.302 638.805 338.832 620.046 320.049C601.288 301.267 575.849 290.709 549.321 290.696ZM549.321 477.725C532.163 477.725 515.391 472.631 501.126 463.086C486.86 453.542 475.741 439.976 469.175 424.105C462.609 408.233 460.891 390.769 464.239 373.919C467.586 357.07 475.848 341.593 487.98 329.446C500.112 317.298 515.569 309.025 532.397 305.674C549.225 302.322 566.667 304.043 582.518 310.617C598.37 317.191 611.918 328.324 621.45 342.608C630.982 356.892 636.07 373.686 636.07 390.865C636.07 413.902 626.93 435.995 610.662 452.284C594.393 468.574 572.328 477.725 549.321 477.725Z" fill="black"/>
<path d="M313.135 416.23C368.392 416.23 413.187 371.379 413.187 316.051C413.187 260.724 368.392 215.872 313.135 215.872C257.879 215.872 213.084 260.724 213.084 316.051C213.084 371.379 257.879 416.23 313.135 416.23Z" fill="#3F3D56"/>
<path d="M313.136 268.117L273.249 360.258L276.973 363.986L313.146 348.011L349.319 363.986L353.042 360.258L313.136 268.117Z" fill="#319795"/>
<path opacity="0.1" d="M313.135 215.842C293.337 215.832 273.981 221.702 257.514 232.708C241.048 243.714 228.211 259.363 220.628 277.675C213.044 295.986 211.055 316.139 214.911 335.583C218.768 355.027 228.297 372.889 242.293 386.909C256.289 400.93 274.123 410.48 293.54 414.351C312.957 418.222 333.085 416.241 351.377 408.657C369.669 401.073 385.304 388.228 396.305 371.746C407.305 355.263 413.177 335.885 413.177 316.062C413.177 289.49 402.638 264.007 383.878 245.214C365.118 226.42 339.673 215.856 313.135 215.842ZM313.135 402.871C295.976 402.871 279.202 397.776 264.935 388.229C250.668 378.683 239.549 365.114 232.985 349.24C226.421 333.365 224.706 315.898 228.057 299.047C231.408 282.197 239.675 266.72 251.812 254.574C263.949 242.429 279.411 234.16 296.242 230.814C313.073 227.468 330.517 229.196 346.368 235.778C362.218 242.36 375.763 253.5 385.289 267.791C394.815 282.082 399.894 298.88 399.884 316.062C399.882 339.096 390.741 361.187 374.473 377.474C358.204 393.762 336.141 402.911 313.135 402.911V402.871Z" fill="black"/>
<path d="M789.65 442.217C788.742 439.999 787.812 437.788 786.857 435.583C786.071 433.431 784.916 431.434 783.444 429.68C782.885 429.049 782.204 428.537 781.442 428.177C780.604 427.867 779.723 427.691 778.83 427.655C777.469 427.484 776.095 427.447 774.726 427.545C774.196 427.385 773.595 427.174 773.005 426.934C775.966 426.155 778.6 424.444 780.517 422.053C782.434 419.663 783.534 416.719 783.654 413.655C783.654 413.454 783.654 413.244 783.654 413.044C783.662 411.168 783.301 409.309 782.592 407.574C781.882 405.838 780.838 404.259 779.519 402.928C778.201 401.596 776.633 400.537 774.905 399.812C773.178 399.087 771.325 398.71 769.451 398.702C766.815 398.697 764.23 399.437 761.995 400.837C759.043 400.166 755.951 400.518 753.224 401.834C750.497 403.15 748.296 405.353 746.981 408.083C745.323 409.671 744.013 411.587 743.134 413.709C742.255 415.831 741.827 418.113 741.876 420.41C741.876 420.62 741.876 420.841 741.876 421.041C742.137 428.828 747.161 435.072 753.507 435.703C752.829 436.008 752.206 436.425 751.665 436.936C749.723 438.81 749.403 441.786 749.193 444.492L749.043 446.497L745.68 447.699C745.573 447.738 745.478 447.804 745.407 447.893C745.335 447.981 745.289 448.087 745.274 448.2C745.258 448.313 745.274 448.427 745.319 448.532C745.364 448.636 745.437 448.726 745.53 448.792L748.743 451.087C748.743 451.277 748.743 451.468 748.743 451.658C748.743 451.848 748.743 452.089 748.803 452.309C748.254 452.793 747.828 453.401 747.562 454.083C747.249 455.135 747.15 456.24 747.271 457.33L747.391 460.127C747.376 462.231 747.662 464.327 748.242 466.35C748.663 467.593 750.484 470.589 751.795 470.609C750.584 476.122 750.264 487.747 750.264 487.747C750.114 487.897 750.534 488.038 751.265 488.158C751.986 493.69 754.338 509.204 758.512 516.029C759.168 518.254 759.693 520.516 760.083 522.804C760.083 522.804 761.274 537.546 762.845 541.925C764.187 545.654 765.248 554.854 765.538 557.52C765.266 557.59 765.018 557.733 764.822 557.935C764.626 558.136 764.49 558.388 764.427 558.662C763.636 561.047 758.512 564.675 758.512 564.675C756.941 565.461 755.458 566.412 754.088 567.511C752.476 568.965 752.536 570.277 759.693 569.456C773.505 567.862 775.867 563.443 775.867 563.443C775.867 563.443 775.647 562.701 775.317 561.739C774.895 560.242 774.286 558.804 773.505 557.459C773.305 557.269 773.105 557.59 772.865 558.091C771.822 551.696 771.507 545.204 771.924 538.738C771.924 538.738 772.314 531.964 770.342 527.183C769.903 524.68 769.903 522.12 770.342 519.617C771.133 516.43 767.189 500.886 767.189 500.886L764.927 489.441C765.236 489.831 765.451 490.287 765.558 490.774L765.618 491.004L765.678 491.335C765.701 491.452 765.756 491.559 765.838 491.645C767.38 498.059 771.603 515.828 771.603 518.434C771.603 521.621 775.547 529.588 775.547 529.588C775.547 529.588 777.118 542.737 779.881 547.909C781.983 551.847 782.033 557.62 781.933 560.165C781.933 560.165 781.462 563.443 780.672 564.234C780.043 565.017 779.54 565.892 779.18 566.83L779.09 567.02C779.09 567.02 777.909 569.416 778.7 569.816C781.708 570.998 784.962 571.408 788.169 571.009C788.169 571.009 789.75 569.005 789.75 568.223C789.717 567.746 789.657 567.27 789.57 566.8C789.28 564.916 788.739 561.949 788.729 561.919C789.059 560.636 787.728 557.069 787.728 557.069L787.328 545.914C788.061 538.362 787.117 530.74 784.565 523.595C784.565 523.595 782.563 516.43 782.994 514.435C783.424 512.441 782.203 491.325 782.203 491.325L782.083 491.024C781.976 489.531 782.016 488.03 782.203 486.544C782.593 481.764 781.022 471.802 780.622 471.411C780.295 470.341 780.107 469.232 780.061 468.114C780.151 467.282 780.422 464.847 780.792 461.82C784.683 461.687 788.565 461.352 792.422 460.818C792.795 460.818 793.153 460.674 793.423 460.417C793.581 460.177 793.662 459.893 793.654 459.605C794.114 453.602 791.922 447.769 789.65 442.217ZM781.713 454.855C782.123 451.999 782.563 449.233 783.004 447.178L783.064 447.359C783.822 449.424 784.457 451.532 784.966 453.672C783.915 454.154 782.827 454.549 781.713 454.855Z" fill="url(#paint0_linear)"/>
<path d="M751.055 487.116C751.055 487.116 753.417 508.392 758.532 516.66C759.189 518.858 759.713 521.094 760.103 523.355C760.103 523.355 761.284 537.927 762.855 542.256C764.427 546.586 765.608 558.412 765.608 558.412C765.608 558.412 771.113 564.705 773.085 559.594C771.846 552.841 771.45 545.96 771.904 539.109C771.904 539.109 772.294 532.415 770.332 527.684C769.893 525.212 769.893 522.681 770.332 520.208C771.113 517.051 767.179 501.698 767.179 501.698L764.037 486.334L751.055 487.116Z" fill="#BE6F72"/>
<path d="M775.837 563.533C775.837 563.533 773.475 567.862 759.713 569.436C752.566 570.247 752.516 568.955 754.128 567.511C755.493 566.424 756.97 565.484 758.532 564.705C758.532 564.705 763.646 561.168 764.427 558.803C765.208 556.437 767.97 558.412 767.97 558.412C771.904 564.315 772.694 556.828 773.475 557.62C774.259 558.942 774.868 560.36 775.287 561.839C775.617 562.791 775.837 563.533 775.837 563.533Z" fill="#FF6F61"/>
<path opacity="0.1" d="M775.837 563.533C775.837 563.533 773.475 567.862 759.713 569.436C752.566 570.247 752.516 568.955 754.128 567.511C755.249 568.223 757.511 568.514 762.065 566.679C768.621 563.994 773.375 562.44 775.287 561.839C775.617 562.791 775.837 563.533 775.837 563.533Z" fill="black"/>
<path opacity="0.1" d="M771.904 539.109C771.904 539.109 772.294 532.415 770.332 527.684C769.893 525.212 769.893 522.681 770.332 520.208C771.113 517.051 767.179 501.698 767.179 501.698L764.036 486.334L761.314 486.494L764.427 501.698C764.427 501.698 768.36 517.051 767.58 520.208C767.141 522.681 767.141 525.212 767.58 527.684C769.582 532.415 769.151 539.109 769.151 539.109C768.697 545.96 769.094 552.841 770.332 559.594C770.119 560.236 769.722 560.8 769.191 561.218C770.652 561.879 772.194 561.849 773.085 559.594C771.846 552.841 771.45 545.96 771.904 539.109Z" fill="black"/>
<path d="M769.341 400.667C766.717 400.661 764.143 401.394 761.914 402.781C758.971 402.101 755.885 402.439 753.158 403.74C750.432 405.041 748.226 407.229 746.901 409.947C745.25 411.51 743.944 413.402 743.066 415.501C742.189 417.599 741.76 419.859 741.806 422.134C741.806 430.512 747.441 437.297 754.388 437.297C759.392 437.297 763.776 433.729 765.788 428.568C766.944 428.874 768.135 429.029 769.331 429.029C773.087 429.029 776.69 427.535 779.346 424.875C782.002 422.216 783.494 418.609 783.494 414.848C783.494 411.087 782.002 407.48 779.346 404.82C776.69 402.161 773.087 400.667 769.331 400.667H769.341Z" fill="#3F3D56"/>
<path d="M780.952 489.09L782.133 492.237C782.133 492.237 783.314 513.112 782.914 515.087C782.513 517.061 784.495 524.106 784.495 524.106C787.039 531.159 787.979 538.692 787.248 546.155L787.638 557.179C787.638 557.179 789.209 561.508 788.429 562.3C787.648 563.092 781.713 561.598 781.713 561.598C781.713 561.598 782.503 553.33 779.711 548.209C776.918 543.088 775.387 530.09 775.387 530.09C775.387 530.09 771.453 522.212 771.453 519.065C771.453 515.919 765.157 490.312 765.157 490.312L780.952 489.09Z" fill="#BE6F72"/>
<path d="M750.264 488.699C750.264 488.699 750.664 474.518 752.266 470.188C753.081 468.165 753.668 466.058 754.017 463.905C754.017 463.905 777.829 468.214 779.801 466.641C779.801 466.641 780.191 472.153 780.592 472.544C780.992 472.935 782.593 482.786 782.163 487.516C781.733 492.247 782.163 492.237 782.163 492.237C782.163 492.237 766.028 494.602 765.638 492.237C765.248 489.872 764.067 489.882 764.067 489.882C764.067 489.882 749.483 489.441 750.264 488.699Z" fill="#3F3D56"/>
<g opacity="0.1">
<path opacity="0.1" d="M763.246 488.699C763.246 488.699 753.297 488.429 750.294 487.888C750.294 488.399 750.294 488.699 750.294 488.699C749.513 489.481 764.067 489.882 764.067 489.882C764.265 489.9 764.453 489.977 764.607 490.102C764.077 488.699 763.246 488.699 763.246 488.699Z" fill="black"/>
<path opacity="0.1" d="M780.562 472.544C780.161 472.153 779.771 466.641 779.771 466.641C779.567 466.768 779.338 466.85 779.1 466.881C779.24 468.545 779.511 471.1 779.771 471.361C780.031 471.622 781.773 481.603 781.342 486.334C780.912 491.064 781.342 491.054 781.342 491.054C781.342 491.054 768.581 492.928 765.488 491.675C765.488 491.846 765.578 492.036 765.608 492.237C765.998 494.602 782.133 492.237 782.133 492.237C782.133 492.237 781.733 492.237 782.133 487.516C782.533 482.796 780.952 472.944 780.562 472.544Z" fill="black"/>
</g>
<path d="M767.6 425.481C767.939 426.239 768.453 426.906 769.101 427.425C769.518 427.735 770.001 427.944 770.512 428.036C769.632 428.548 768.671 428.928 767.79 429.439C766.405 430.372 765.068 431.375 763.786 432.446C762.476 433.501 760.871 434.124 759.192 434.23C759.781 433.435 760.151 432.498 760.263 431.515C760.376 430.531 760.227 429.536 759.833 428.628C759.472 428.033 759.234 427.372 759.132 426.683C759.132 425.551 760.133 424.679 761.064 424.078C761.815 423.567 762.585 423.076 763.366 422.584C763.976 422.204 764.897 421.402 765.668 421.432C766.439 421.462 766.529 422.144 766.669 422.845C766.867 423.759 767.18 424.645 767.6 425.481Z" fill="#BE6F72"/>
<path opacity="0.1" d="M767.6 425.481C767.939 426.239 768.453 426.906 769.101 427.425C769.518 427.735 770.001 427.944 770.512 428.036C769.632 428.548 768.671 428.928 767.79 429.439C766.405 430.372 765.068 431.375 763.786 432.446C762.476 433.501 760.871 434.124 759.192 434.23C759.781 433.435 760.151 432.498 760.263 431.515C760.376 430.531 760.227 429.536 759.833 428.628C759.472 428.033 759.234 427.372 759.132 426.683C759.132 425.551 760.133 424.679 761.064 424.078C761.815 423.567 762.585 423.076 763.366 422.584C763.976 422.204 764.897 421.402 765.668 421.432C766.439 421.462 766.529 422.144 766.669 422.845C766.867 423.759 767.18 424.645 767.6 425.481Z" fill="black"/>
<path d="M776.818 448.722C781.815 448.722 785.866 444.666 785.866 439.662C785.866 434.658 781.815 430.602 776.818 430.602C771.821 430.602 767.77 434.658 767.77 439.662C767.77 444.666 771.821 448.722 776.818 448.722Z" fill="#BE6F72"/>
<path d="M789.6 568.253C789.6 569.045 788.028 571.009 788.028 571.009C784.833 571.402 781.59 570.995 778.59 569.826C777.799 569.435 778.98 567.07 778.98 567.07L779.07 566.88C779.431 565.952 779.934 565.086 780.562 564.314C781.342 563.532 781.813 560.305 781.813 560.305C784.255 556.297 788.589 562.039 788.589 562.039C788.589 562.039 789.139 565.046 789.43 566.87C789.53 567.521 789.6 568.052 789.6 568.253Z" fill="#FF6F61"/>
<path opacity="0.1" d="M789.6 568.253C789.6 569.045 788.028 571.009 788.028 571.009C784.833 571.402 781.59 570.996 778.59 569.826C777.799 569.435 778.98 567.07 778.98 567.07L779.07 566.88C781.75 568.126 784.684 568.73 787.638 568.644L789.43 566.85C789.53 567.521 789.6 568.052 789.6 568.253Z" fill="black"/>
<path d="M758.722 429.609C763.608 429.609 767.57 425.643 767.57 420.75C767.57 415.857 763.608 411.891 758.722 411.891C753.835 411.891 749.874 415.857 749.874 420.75C749.874 425.643 753.835 429.609 758.722 429.609Z" fill="#BE6F72"/>
<path d="M751.585 438.47C749.643 440.324 749.323 443.26 749.123 445.936L748.823 449.854C748.714 450.91 748.691 451.972 748.753 453.031C748.753 453.683 748.913 454.344 748.973 455.036C749.033 455.727 749.053 456.599 749.063 457.391V463.184C748.968 464.379 749.189 465.578 749.704 466.661C749.978 467.185 750.439 467.587 750.995 467.787C751.551 467.987 752.161 467.972 752.706 467.744C753.328 467.264 753.766 466.584 753.947 465.819C754.924 463.469 755.596 461.004 755.949 458.483C756.029 457.611 756.039 456.739 756.119 455.868C756.199 454.996 756.349 454.084 756.48 453.202C757.04 449.514 757.29 445.785 757.541 442.067C757.611 440.965 758.602 436.625 757.16 436.144C756.46 435.914 755.008 436.635 754.338 436.876C753.322 437.216 752.386 437.758 751.585 438.47Z" fill="#BE6F72"/>
<path opacity="0.1" d="M751.585 438.47C749.643 440.324 749.323 443.26 749.123 445.936L748.823 449.854C748.714 450.91 748.691 451.972 748.753 453.031C748.753 453.683 748.913 454.344 748.973 455.036C749.033 455.727 749.053 456.599 749.063 457.391V463.184C748.968 464.379 749.189 465.578 749.704 466.661C749.978 467.185 750.439 467.587 750.995 467.787C751.551 467.987 752.161 467.972 752.706 467.744C753.328 467.264 753.766 466.584 753.947 465.819C754.924 463.469 755.596 461.004 755.949 458.483C756.029 457.611 756.039 456.739 756.119 455.868C756.199 454.996 756.349 454.084 756.48 453.202C757.04 449.514 757.29 445.785 757.541 442.067C757.611 440.965 758.602 436.625 757.16 436.144C756.46 435.914 755.008 436.635 754.338 436.876C753.322 437.216 752.386 437.758 751.585 438.47Z" fill="black"/>
<path d="M769.932 426.463C769.932 426.463 763.246 431.584 759.312 432.767C759.312 432.767 756.98 435.433 756.58 436.074C756.179 436.715 755.379 443.791 754.578 445.374C753.777 446.958 751.825 450.496 754.578 454.033C754.578 454.033 755.359 457.581 754.968 458.764C754.578 459.946 753.147 464.276 754.448 464.476C755.749 464.677 759.693 467.423 763.226 466.641C766.759 465.859 779.951 469.647 779.951 469.647C779.951 469.647 782.133 449.353 783.714 445.765L780.171 444.583C780.171 444.583 770.342 438.68 776.238 429.62C776.228 429.62 770.703 428.437 769.932 426.463Z" fill="#805AD5"/>
<path d="M745.52 450.185L753.647 455.947C753.75 456.023 753.874 456.064 754.002 456.064C754.13 456.064 754.254 456.023 754.357 455.947L756.559 454.294C756.627 454.235 756.682 454.163 756.719 454.082C756.756 454.001 756.775 453.912 756.775 453.823C756.775 453.733 756.756 453.645 756.719 453.564C756.682 453.482 756.627 453.41 756.559 453.352L750.304 447.79C750.223 447.716 750.123 447.665 750.015 447.644C749.908 447.623 749.796 447.632 749.693 447.669L745.68 449.112C745.574 449.149 745.481 449.214 745.409 449.3C745.338 449.386 745.291 449.489 745.275 449.6C745.258 449.711 745.272 449.824 745.315 449.927C745.359 450.03 745.429 450.119 745.52 450.185Z" fill="#3F3D56"/>
<path d="M748.252 467.543C747.677 465.546 747.391 463.477 747.401 461.399L747.281 458.623C747.16 457.545 747.259 456.454 747.571 455.416C747.88 454.704 748.342 454.069 748.926 453.558C749.509 453.047 750.199 452.672 750.944 452.46C752.439 452.044 754 451.932 755.539 452.129C755.746 452.13 755.95 452.185 756.129 452.289C756.286 452.435 756.397 452.623 756.449 452.83C756.677 453.275 756.81 453.761 756.841 454.26C756.872 454.758 756.8 455.258 756.63 455.727C756.397 456.109 756.083 456.434 755.709 456.679C754.618 457.461 753.347 457.982 752.316 458.834C752.106 458.975 751.945 459.178 751.855 459.415C751.805 459.622 751.805 459.839 751.855 460.046C751.983 460.598 752.157 461.137 752.376 461.66C752.464 461.922 752.619 462.157 752.826 462.341C753.016 462.502 753.267 462.562 753.467 462.712C753.897 463.063 754.798 463.524 754.748 464.075C754.598 466.079 753.397 468.324 752.926 470.309C752.025 474.187 748.832 469.236 748.252 467.543Z" fill="#BE6F72"/>
<g opacity="0.1">
<path opacity="0.1" d="M760.894 466.641H760.673C761.523 466.807 762.396 466.807 763.246 466.641H763.496C762.633 466.515 761.756 466.515 760.894 466.641Z" fill="black"/>
<path opacity="0.1" d="M781.542 445.174C780.131 448.351 778.049 465.559 777.679 468.976C779.06 469.337 779.971 469.598 779.971 469.598C779.971 469.598 782.133 449.353 783.714 445.766L781.542 445.174Z" fill="black"/>
</g>
<path d="M777.128 439.942C777.202 440.338 777.354 440.715 777.576 441.051C777.798 441.386 778.085 441.674 778.42 441.897C779.255 442.598 780.022 443.376 780.712 444.222C781.701 445.614 782.467 447.153 782.984 448.782C783.735 450.821 784.366 452.902 784.875 455.015C779.871 457.34 774.186 457.23 768.861 458.764C766.568 459.369 764.489 460.601 762.855 462.321C762.041 463.186 761.422 464.217 761.04 465.342C760.659 466.468 760.523 467.663 760.643 468.846C760.651 468.984 760.692 469.118 760.763 469.236C760.85 469.335 760.959 469.411 761.081 469.46C761.202 469.509 761.334 469.528 761.464 469.517C762.794 469.515 764.086 469.071 765.137 468.254C766.176 467.441 767.12 466.514 767.95 465.488C768.466 464.816 769.159 464.302 769.952 464.005C772.844 463.123 775.957 463.173 778.96 463.123C783.451 463.035 787.933 462.68 792.382 462.061C792.545 462.08 792.709 462.062 792.864 462.009C793.018 461.955 793.159 461.867 793.274 461.751C793.39 461.636 793.478 461.495 793.531 461.34C793.585 461.186 793.603 461.021 793.583 460.858C794.024 454.945 791.832 449.172 789.58 443.69C788.679 441.492 787.751 439.304 786.797 437.126C786.011 434.998 784.86 433.024 783.394 431.293C782.838 430.664 782.156 430.159 781.392 429.81C780.531 429.499 779.625 429.33 778.71 429.309C777.253 429.112 775.779 429.085 774.316 429.229C774.082 429.967 773.941 430.731 773.895 431.504C773.976 434.21 775.157 436.745 776.318 439.191C776.468 439.561 776.898 439.581 777.128 439.942Z" fill="#BE6F72"/>
<path opacity="0.1" d="M761.104 445.013C760.427 446.174 760.08 447.498 760.103 448.842C760.105 449.373 760.19 449.9 760.353 450.405C760.626 451.114 761.055 451.752 761.608 452.272C762.16 452.793 762.823 453.182 763.546 453.412" stroke="black" stroke-miterlimit="10"/>
<path d="M766.198 412.091C765.705 412.09 765.215 412.168 764.747 412.322C763.436 410.318 760.353 408.935 756.74 408.935C751.956 408.935 748.082 411.41 748.082 414.457C748.082 417.503 751.956 419.969 756.74 419.969C758.531 419.988 760.305 419.612 761.935 418.866C762.301 419.625 762.864 420.273 763.565 420.74C764.266 421.208 765.079 421.479 765.92 421.525C766.761 421.571 767.599 421.391 768.347 421.003C769.095 420.616 769.725 420.034 770.173 419.32C770.62 418.606 770.868 417.784 770.891 416.941C770.915 416.098 770.712 415.264 770.304 414.527C769.896 413.789 769.299 413.174 768.573 412.745C767.848 412.317 767.021 412.091 766.178 412.091H766.198Z" fill="#3F3D56"/>
<path opacity="0.1" d="M766.589 420.359C765.701 420.36 764.832 420.108 764.081 419.635C763.33 419.161 762.728 418.485 762.345 417.684C760.715 418.429 758.942 418.805 757.15 418.786C752.376 418.786 748.502 416.321 748.502 413.274C748.487 413.09 748.487 412.906 748.502 412.723C748.218 413.256 748.066 413.851 748.062 414.456C748.062 417.463 751.936 419.969 756.72 419.969C758.511 419.988 760.285 419.612 761.915 418.866C762.346 419.761 763.048 420.497 763.921 420.969C764.794 421.441 765.793 421.625 766.777 421.495C767.761 421.365 768.679 420.928 769.399 420.245C770.12 419.563 770.608 418.67 770.793 417.694C770.412 418.488 769.816 419.159 769.072 419.63C768.329 420.101 767.469 420.354 766.589 420.359Z" fill="black"/>
<path opacity="0.1" d="M746.911 412.272C748.236 409.554 750.442 407.366 753.169 406.065C755.895 404.764 758.982 404.426 761.925 405.106C763.984 403.833 766.335 403.11 768.753 403.006C771.171 402.902 773.575 403.421 775.736 404.513C777.897 405.605 779.742 407.233 781.095 409.242C782.448 411.252 783.264 413.575 783.464 415.99C783.464 415.599 783.464 415.208 783.464 414.807C783.459 412.287 782.782 409.813 781.504 407.642C780.225 405.471 778.392 403.68 776.192 402.454C773.992 401.229 771.506 400.613 768.989 400.671C766.472 400.728 764.016 401.457 761.874 402.781C758.931 402.101 755.845 402.439 753.118 403.74C750.392 405.041 748.186 407.229 746.861 409.947C745.21 411.51 743.904 413.402 743.027 415.501C742.149 417.599 741.72 419.859 741.766 422.133C741.766 422.534 741.766 422.925 741.766 423.316C741.963 419.1 743.811 415.132 746.911 412.272Z" fill="black"/>
<path d="M837.153 415.278C839.766 410.438 836.803 404.495 833.39 400.175C829.977 395.856 825.833 391.366 825.923 385.854C826.043 377.947 834.431 373.277 841.137 369.077C846.108 365.958 850.691 362.257 854.789 358.053C856.511 356.442 857.934 354.539 858.993 352.431C860.374 349.334 860.334 345.816 860.254 342.409C859.961 331.118 859.403 319.84 858.583 308.575" stroke="#3F3D56" stroke-width="4" stroke-miterlimit="10"/>
<path d="M871.314 307.974C871.219 305.909 870.606 303.901 869.532 302.136C868.458 300.37 866.957 298.904 865.169 297.872L862.406 303.334L862.486 296.719C861.172 296.327 859.802 296.16 858.432 296.228C855.998 296.342 853.652 297.176 851.691 298.625C849.73 300.073 848.242 302.072 847.416 304.367C846.589 306.663 846.461 309.152 847.047 311.521C847.634 313.889 848.909 316.03 850.711 317.673C852.512 319.316 854.76 320.387 857.17 320.751C859.58 321.115 862.043 320.754 864.249 319.716C866.454 318.678 868.303 317.008 869.56 314.918C870.818 312.828 871.428 310.411 871.314 307.974Z" fill="#805AD5"/>
<path d="M849.344 391.486C848.052 394.003 845.935 395.999 843.347 397.138C840.76 398.278 837.86 398.492 835.134 397.745C832.408 396.997 830.021 395.335 828.374 393.035C826.726 390.735 825.919 387.938 826.087 385.113C826.255 382.288 827.388 379.606 829.295 377.518C831.203 375.43 833.77 374.062 836.565 373.644C839.361 373.226 842.215 373.782 844.649 375.221C847.083 376.659 848.95 378.892 849.935 381.545L842.238 387.818L850.706 385.814C850.714 387.787 850.247 389.733 849.344 391.486Z" fill="#805AD5"/>
<path d="M843.259 367.524C840.234 367.67 837.261 366.695 834.909 364.786C832.556 362.876 830.988 360.166 830.504 357.173C830.02 354.18 830.654 351.113 832.285 348.558C833.915 346.003 836.429 344.139 839.345 343.321L839.285 348.402L842.078 342.88C845.342 342.73 848.533 343.884 850.948 346.089C853.364 348.293 854.806 351.367 854.959 354.636C855.036 356.254 854.793 357.872 854.245 359.396C853.697 360.921 852.854 362.322 851.764 363.52C850.675 364.718 849.36 365.689 847.896 366.378C846.431 367.067 844.845 367.46 843.229 367.534L843.259 367.524Z" fill="#805AD5"/>
<path d="M873.166 347.6C871.256 347.698 869.349 347.349 867.598 346.58C865.846 345.812 864.296 344.646 863.072 343.175C861.848 341.704 860.983 339.967 860.545 338.103C860.107 336.239 860.109 334.298 860.55 332.435C860.991 330.571 861.859 328.836 863.086 327.367C864.312 325.898 865.864 324.735 867.617 323.97C869.37 323.205 871.278 322.859 873.187 322.959C875.097 323.06 876.958 323.605 878.621 324.55L876.439 330.563L880.923 326.254C882.118 327.34 883.087 328.651 883.774 330.113C884.461 331.575 884.853 333.158 884.927 334.772C884.987 335.914 884.882 337.058 884.616 338.17C883.989 340.773 882.532 343.101 880.466 344.802C878.401 346.504 875.838 347.486 873.166 347.6Z" fill="#6C63FF"/>
<path d="M869.663 311.261C866.82 311.582 864.048 312.464 861.195 312.644C858.342 312.824 855.19 312.133 853.398 309.908C852.561 308.619 851.802 307.28 851.126 305.899C850.345 304.685 849.28 303.681 848.023 302.973C847.224 304.537 846.768 306.254 846.686 308.008C846.603 309.763 846.896 311.515 847.544 313.147C848.192 314.779 849.181 316.254 850.444 317.473C851.707 318.692 853.216 319.627 854.869 320.215C856.522 320.803 858.282 321.03 860.03 320.883C861.778 320.735 863.474 320.215 865.006 319.358C866.537 318.501 867.868 317.326 868.909 315.912C869.95 314.499 870.678 312.879 871.044 311.161C870.584 311.181 870.123 311.211 869.663 311.261Z" fill="#6B46C1"/>
<path opacity="0.1" d="M873.166 347.6C871.042 347.698 868.93 347.244 867.033 346.283C865.136 345.323 863.519 343.887 862.34 342.116C861.161 340.345 860.458 338.299 860.302 336.177C860.145 334.054 860.539 331.927 861.445 330.001C862.425 330.658 863.268 331.499 863.927 332.477C864.659 333.884 865.475 335.246 866.37 336.556C868.281 338.821 871.564 339.562 874.537 339.422C877.51 339.282 880.382 338.42 883.345 338.169C883.756 338.169 884.176 338.099 884.586 338.089C883.975 340.703 882.529 343.045 880.468 344.762C878.407 346.478 875.844 347.474 873.166 347.6Z" fill="black"/>
<path d="M843.259 367.524C841.153 367.627 839.055 367.187 837.168 366.246C835.281 365.304 833.666 363.893 832.48 362.148C831.293 360.403 830.574 358.381 830.392 356.278C830.209 354.175 830.57 352.06 831.438 350.136C832.448 350.809 833.329 351.657 834.04 352.641C835.041 353.994 835.592 355.558 836.713 356.8C838.795 359.125 842.288 359.937 845.441 359.867C848.594 359.797 851.446 359.045 854.449 358.815C853.706 361.243 852.232 363.383 850.23 364.942C848.227 366.5 845.792 367.402 843.259 367.524Z" fill="#6B46C1"/>
<path d="M849.344 391.487C847.875 394.239 845.419 396.333 842.47 397.345C839.521 398.358 836.299 398.215 833.452 396.945C830.604 395.675 828.343 393.372 827.122 390.5C825.902 387.628 825.813 384.4 826.874 381.465C827.891 382.129 828.802 382.943 829.576 383.88C830.757 385.313 831.528 386.887 832.879 388.27C835.402 390.745 839.465 391.757 843.089 391.858C845.179 391.855 847.268 391.732 849.344 391.487Z" fill="#6B46C1"/>
<path d="M996.298 567.612C998.91 562.771 995.948 556.828 992.535 552.509C989.122 548.189 984.978 543.699 985.068 538.187C985.188 530.28 993.576 525.61 1000.28 521.411C1005.25 518.291 1009.84 514.59 1013.93 510.386C1015.66 508.776 1017.08 506.872 1018.14 504.764C1019.52 501.667 1019.48 498.15 1019.4 494.742C1019.11 483.451 1018.55 472.173 1017.73 460.908" stroke="#3F3D56" stroke-width="4" stroke-miterlimit="10"/>
<path d="M1030.46 460.307C1030.36 458.242 1029.75 456.234 1028.68 454.469C1027.6 452.703 1026.1 451.237 1024.31 450.205L1021.55 455.667L1021.63 449.052C1020.33 448.665 1018.98 448.499 1017.63 448.561C1015.19 448.675 1012.85 449.509 1010.89 450.957C1008.93 452.406 1007.44 454.405 1006.61 456.7C1005.78 458.996 1005.66 461.485 1006.24 463.854C1006.83 466.222 1008.1 468.363 1009.91 470.006C1011.71 471.649 1013.96 472.72 1016.37 473.084C1018.78 473.447 1021.24 473.087 1023.44 472.049C1025.65 471.011 1027.5 469.341 1028.76 467.251C1030.01 465.161 1030.62 462.744 1030.51 460.307H1030.46Z" fill="#6C63FF"/>
<path d="M1008.49 543.82C1007.2 546.337 1005.08 548.332 1002.49 549.472C999.905 550.611 997.005 550.825 994.279 550.078C991.553 549.331 989.166 547.668 987.519 545.368C985.872 543.068 985.064 540.271 985.232 537.446C985.4 534.621 986.533 531.94 988.441 529.852C990.348 527.763 992.915 526.396 995.711 525.977C998.506 525.559 1001.36 526.116 1003.79 527.554C1006.23 528.993 1008.09 531.225 1009.08 533.878L1001.38 540.152L1009.85 538.147C1009.86 540.12 1009.39 542.066 1008.49 543.82Z" fill="#6C63FF"/>
<path d="M1002.4 519.857C999.379 520.003 996.406 519.028 994.054 517.118C991.701 515.209 990.133 512.499 989.649 509.506C989.165 506.513 989.799 503.446 991.43 500.891C993.06 498.336 995.574 496.472 998.49 495.654L998.43 500.735L1001.22 495.213C1004.49 495.063 1007.68 496.217 1010.09 498.422C1012.51 500.626 1013.95 503.7 1014.1 506.969C1014.18 508.587 1013.94 510.205 1013.39 511.729C1012.84 513.254 1012 514.655 1010.91 515.853C1009.82 517.051 1008.51 518.022 1007.04 518.711C1005.58 519.399 1003.99 519.792 1002.37 519.867L1002.4 519.857Z" fill="#6C63FF"/>
<path d="M1032.31 499.934C1030.4 500.031 1028.49 499.682 1026.74 498.914C1024.99 498.146 1023.44 496.98 1022.22 495.509C1020.99 494.037 1020.13 492.301 1019.69 490.436C1019.25 488.572 1019.25 486.632 1019.7 484.768C1020.14 482.905 1021 481.17 1022.23 479.701C1023.46 478.231 1025.01 477.068 1026.76 476.303C1028.52 475.538 1030.42 475.192 1032.33 475.293C1034.24 475.394 1036.1 475.938 1037.77 476.883L1035.58 482.897L1040.07 478.587C1041.26 479.673 1042.23 480.985 1042.92 482.447C1043.61 483.908 1044 485.492 1044.07 487.106C1044.13 488.247 1044.03 489.392 1043.76 490.503C1043.13 493.107 1041.68 495.435 1039.61 497.136C1037.55 498.837 1034.98 499.819 1032.31 499.934Z" fill="#6C63FF"/>
<path opacity="0.1" d="M1028.81 463.594C1025.97 463.915 1023.19 464.797 1020.34 464.977C1017.49 465.158 1014.33 464.466 1012.54 462.241C1011.71 460.952 1010.95 459.613 1010.27 458.233C1009.49 457.019 1008.42 456.014 1007.17 455.306C1006.37 456.87 1005.91 458.587 1005.83 460.341C1005.75 462.096 1006.04 463.848 1006.69 465.48C1007.34 467.113 1008.33 468.588 1009.59 469.806C1010.85 471.025 1012.36 471.96 1014.01 472.548C1015.67 473.136 1017.43 473.364 1019.17 473.216C1020.92 473.068 1022.62 472.548 1024.15 471.691C1025.68 470.834 1027.01 469.659 1028.05 468.246C1029.1 466.832 1029.82 465.212 1030.19 463.494C1029.73 463.514 1029.27 463.544 1028.81 463.594Z" fill="black"/>
<path opacity="0.1" d="M1032.31 499.933C1030.19 500.031 1028.07 499.578 1026.18 498.617C1024.28 497.656 1022.66 496.221 1021.49 494.45C1020.31 492.679 1019.6 490.633 1019.45 488.51C1019.29 486.387 1019.68 484.26 1020.59 482.335C1021.57 482.992 1022.41 483.832 1023.07 484.81C1023.8 486.218 1024.62 487.58 1025.51 488.889C1027.43 491.154 1030.71 491.896 1033.68 491.756C1036.65 491.615 1039.53 490.753 1042.49 490.503C1042.9 490.503 1043.32 490.433 1043.73 490.423C1043.12 493.036 1041.67 495.379 1039.61 497.095C1037.55 498.811 1034.99 499.808 1032.31 499.933Z" fill="black"/>
<path opacity="0.1" d="M1002.4 519.857C1000.3 519.961 998.2 519.52 996.313 518.579C994.426 517.638 992.811 516.227 991.625 514.482C990.438 512.736 989.719 510.715 989.537 508.612C989.354 506.508 989.715 504.393 990.583 502.469C991.593 503.142 992.474 503.991 993.185 504.975C994.186 506.328 994.737 507.891 995.858 509.134C997.939 511.459 1001.43 512.271 1004.59 512.201C1007.74 512.13 1010.59 511.379 1013.59 511.148C1012.85 513.577 1011.38 515.716 1009.37 517.275C1007.37 518.834 1004.94 519.736 1002.4 519.857Z" fill="black"/>
<path opacity="0.1" d="M1008.49 543.819C1007.02 546.572 1004.56 548.665 1001.62 549.678C998.666 550.691 995.444 550.548 992.597 549.278C989.749 548.008 987.488 545.705 986.267 542.833C985.047 539.961 984.958 536.732 986.019 533.797C987.036 534.462 987.947 535.276 988.721 536.213C989.902 537.646 990.723 539.219 992.024 540.602C994.547 543.078 998.61 544.09 1002.23 544.19C1004.32 544.188 1006.41 544.064 1008.49 543.819Z" fill="black"/>
<path d="M478.436 426.212C478.449 424.675 478.102 423.156 477.422 421.778C476.742 420.399 475.749 419.2 474.523 418.275C474.508 415.558 473.534 412.933 471.774 410.865C470.014 408.796 467.581 407.417 464.904 406.97C464.49 404.995 463.565 403.163 462.221 401.659C460.877 400.155 459.162 399.032 457.247 398.401C456.782 398.256 456.307 398.145 455.826 398.071H455.685H455.435H455.235H455.015H454.745H454.134C451.474 398.132 448.922 399.134 446.929 400.898C444.936 402.663 443.631 405.076 443.244 407.712C439.731 406.9 436.518 407.952 435.927 410.177C435.779 410.768 435.814 411.39 436.027 411.961C436.628 413.685 438.58 415.339 441.192 416.15L441.533 416.251L442.043 416.381H442.153C441.595 417.569 441.308 418.866 441.312 420.179C441.304 421.79 441.74 423.372 442.572 424.752C443.403 426.131 444.599 427.253 446.027 427.996L445.796 428.137C445.471 428.433 445.212 428.795 445.036 429.199C444.404 430.318 443.91 431.509 443.564 432.747C443.314 433.809 443.274 434.911 442.964 435.964C442.383 437.898 440.902 439.532 440.732 441.546C440.652 442.448 440.802 443.55 440.161 444.132C440.004 444.269 439.833 444.39 439.651 444.492C439.207 444.806 438.83 445.205 438.54 445.665C438.348 446.082 438.083 446.462 437.759 446.787C437.179 447.218 436.228 447.178 435.947 447.85C435.667 448.521 436.398 449.313 436.228 450.045C436.057 450.776 435.437 450.916 434.987 451.327C434.463 451.892 434.094 452.582 433.916 453.332C432.968 453.513 431.993 453.483 431.059 453.244C430.125 453.005 429.255 452.562 428.511 451.949C428.766 452.596 428.954 453.267 429.071 453.953C428.2 453.287 427.212 452.791 426.158 452.49C424.973 451.95 423.915 451.164 423.056 450.185L424.717 449.954L417.38 438.74L415.208 438.289L417.15 442.027C416.988 442.101 416.844 442.211 416.73 442.348C416.616 442.485 416.534 442.646 416.49 442.819C416.386 443.235 416.363 443.667 416.42 444.092C416.519 445.104 416.686 446.108 416.92 447.098L417.481 449.724C417.531 449.964 417.591 450.215 417.661 450.455C416.929 450.419 416.195 450.501 415.489 450.696C414.034 450.154 412.518 449.794 410.975 449.624C410.644 449.556 410.304 449.556 409.974 449.624C409.6 449.801 409.274 450.066 409.023 450.395C407.759 451.863 406.636 453.447 405.67 455.126C401.666 462.001 396.451 468.004 391.517 474.217C388.114 475.6 384.681 476.913 381.248 478.226L373.861 481.052C372.421 481.707 370.858 482.048 369.277 482.055C368.576 482.055 367.705 481.904 367.275 482.506C367.082 482.819 366.93 483.155 366.824 483.508L366.064 483.588C365.713 482.384 365.109 481.27 364.292 480.321C364.112 480.352 363.942 480.426 363.797 480.538C363.652 480.65 363.537 480.796 363.461 480.962C363.281 481.293 363.171 481.654 362.961 481.964C362.57 482.546 361.88 482.826 361.389 483.317C360.899 483.808 360.589 484.57 360.048 485.071C359.311 485.617 358.446 485.962 357.536 486.073C356.164 486.394 354.841 486.896 353.602 487.567C353.149 487.851 352.661 488.077 352.151 488.238C351.587 488.348 351.01 488.369 350.439 488.298L346.536 488.008C346.185 487.964 345.83 487.981 345.485 488.058C345.093 488.218 344.762 488.498 344.539 488.858C344.316 489.218 344.212 489.64 344.244 490.062C344.294 490.487 344.43 490.897 344.643 491.267C344.857 491.637 345.143 491.961 345.485 492.217C346.16 492.716 346.91 493.105 347.707 493.369C351.085 494.686 354.567 495.719 358.116 496.456V497.248C360.6 498.501 363.343 499.154 366.124 499.152C366.33 499.166 366.536 499.128 366.724 499.042C366.98 498.85 367.158 498.573 367.225 498.26C368.055 495.774 368.579 493.196 368.786 490.583C369.275 490.55 369.753 490.428 370.197 490.222C371.539 489.852 372.88 490.774 374.271 490.924C375.983 491.114 377.564 490.112 379.186 489.501L379.886 489.27C379.425 489.865 378.878 490.388 378.265 490.824C377.594 491.305 376.844 491.666 376.193 492.167C375.642 492.666 375.053 493.122 374.431 493.53C373.993 493.733 373.541 493.907 373.08 494.051C372.398 494.305 371.749 494.641 371.148 495.053C370.616 495.371 370.167 495.81 369.837 496.336C369.673 496.605 369.577 496.91 369.557 497.224C369.538 497.539 369.596 497.853 369.727 498.14C369.865 498.374 370.052 498.575 370.275 498.731C370.498 498.886 370.751 498.992 371.018 499.042C371.546 499.122 372.082 499.122 372.61 499.042C374.732 498.881 376.843 498.691 378.955 498.501C379.848 498.444 380.735 498.317 381.608 498.12C382.068 498.009 382.529 497.859 382.989 497.729C383.779 497.529 384.587 497.408 385.401 497.368C385.637 497.35 385.874 497.374 386.102 497.438C386.592 497.599 386.943 498.1 387.443 498.2C387.782 498.243 388.127 498.198 388.444 498.07C389.987 497.737 391.56 497.569 393.138 497.569C393.829 497.569 394.64 497.398 394.96 496.757C395.28 496.115 394.7 495.083 394.44 494.231C394.306 493.686 394.232 493.128 394.219 492.568C394.099 491.187 393.704 489.845 393.058 488.619C392.71 488.047 392.419 487.443 392.187 486.815C395.215 485.664 398.11 484.192 400.825 482.425C402.313 481.347 403.98 480.542 405.75 480.05C407.84 479.801 409.959 480.048 411.936 480.772C416.748 482.168 421.482 483.821 426.118 485.723C428.33 486.635 430.532 487.597 432.815 488.288C433.48 489.182 434.284 489.964 435.197 490.603C436.773 491.491 438.543 491.976 440.351 492.016C442.764 492.237 445.186 492.327 447.608 492.287C449.462 492.368 451.311 492.025 453.013 491.285C453.419 491.082 453.799 490.829 454.144 490.533C454.798 490.589 455.456 490.5 456.071 490.273C456.687 490.046 457.245 489.687 457.707 489.22C459.02 488.094 459.964 486.6 460.42 484.931C461.01 482.646 460.56 479.92 461.961 478.096C462.331 477.595 462.822 477.194 463.192 476.693C463.641 476.007 463.865 475.197 463.833 474.378C463.849 474.345 463.869 474.315 463.893 474.288C464.2 473.551 464.402 472.775 464.493 471.983C464.665 471.359 464.883 470.75 465.144 470.159C465.855 468.391 466.477 466.588 467.006 464.757C467.367 463.539 467.654 462.301 467.867 461.049C468.017 460.046 468.107 459.044 468.187 458.042C468.293 456.463 468.599 454.904 469.098 453.402C470.351 449.827 471.059 446.084 471.2 442.298V442.077C473.044 441.865 474.742 440.97 475.961 439.568C477.179 438.166 477.83 436.359 477.786 434.501C477.786 433.385 477.551 432.282 477.095 431.263C477.98 429.728 478.443 427.985 478.436 426.212ZM442.623 469.778C442.734 470.169 442.864 470.549 442.994 470.93C442.403 470.359 441.833 469.768 441.242 469.186C441.472 469.267 441.713 469.337 441.933 469.427C442.164 469.521 442.386 469.639 442.593 469.778H442.623ZM439.791 467.854C436.328 464.847 432.324 462.512 428.781 459.595C430.713 460.547 432.594 461.66 434.456 462.722C436.665 463.985 438.903 465.198 441.172 466.36C440.8 466.942 440.321 467.449 439.761 467.854H439.791ZM441.262 460.277L441.432 460.107C441.432 460.537 441.432 460.928 441.432 461.299L440.502 460.978C440.759 460.76 441.003 460.525 441.232 460.277H441.262ZM410.804 468.395C412.225 466.784 413.461 465.02 414.488 463.133C415.859 465.528 418.091 467.262 419.983 469.277C416.93 468.886 413.867 468.555 410.804 468.395Z" fill="url(#paint1_linear)"/>
<path d="M415.729 439.211L417.911 439.652L425.348 450.666L422.075 451.107L415.729 439.211Z" fill="#2F2E41"/>
<path d="M362.821 483.889C363.413 485.832 364.142 487.731 365.003 489.571C367.467 489.05 369.892 488.357 372.259 487.497C371.793 486.801 371.288 486.132 370.748 485.492C370.161 484.852 369.466 484.32 368.696 483.919C367.876 483.733 367.024 483.733 366.204 483.919C365.083 483.889 363.952 483.909 362.821 483.889Z" fill="#FBBEBE"/>
<path d="M368.706 486.825C368.114 486.56 367.586 486.17 367.158 485.682C366.73 485.195 366.411 484.621 366.224 483.999C365.843 482.75 365.197 481.598 364.332 480.622C364.15 480.647 363.977 480.718 363.83 480.828C363.683 480.939 363.566 481.085 363.491 481.253C363.311 481.574 363.201 481.934 363.001 482.255C362.601 482.826 361.9 483.107 361.399 483.588C360.899 484.069 360.599 484.821 360.058 485.312C359.315 485.86 358.443 486.205 357.526 486.314C356.133 486.629 354.787 487.124 353.522 487.787C353.059 488.064 352.566 488.287 352.051 488.449C351.48 488.534 350.9 488.534 350.329 488.449L346.386 488.168C346.054 488.113 345.716 488.113 345.385 488.168C344.982 488.314 344.64 488.59 344.413 488.954C344.187 489.317 344.088 489.746 344.134 490.172C344.18 490.595 344.316 491.003 344.532 491.369C344.747 491.735 345.038 492.052 345.385 492.297C346.07 492.79 346.826 493.175 347.627 493.44C351.06 494.734 354.596 495.74 358.197 496.446V497.228C360.704 498.46 363.46 499.101 366.254 499.102C366.459 499.114 366.664 499.08 366.854 499.002C367.11 498.81 367.288 498.533 367.355 498.22C368.304 495.452 368.86 492.564 369.006 489.641C369.071 488.899 369.013 488.151 368.836 487.426C368.616 486.715 369.357 487.016 368.676 486.735" fill="#2F2E41"/>
<path d="M444.335 471.942C432.644 472.644 421.094 469.217 409.383 468.856C407.93 468.76 406.47 468.851 405.039 469.126C403.55 469.531 402.107 470.092 400.735 470.8C394.46 473.726 387.964 476.152 381.478 478.567L374.021 481.343C372.571 481.999 370.998 482.341 369.407 482.345C368.696 482.345 367.825 482.195 367.405 482.786C366.194 484.59 366.764 487.226 367.565 489.25C367.825 489.902 368.266 490.613 368.966 490.684C369.458 490.65 369.94 490.528 370.388 490.323C371.739 489.962 373.09 490.874 374.491 491.024C376.213 491.205 377.814 490.223 379.446 489.621C382.148 488.619 385.091 488.619 387.934 488.178C392.688 487.386 397.102 485.171 401.226 482.656C402.725 481.586 404.403 480.792 406.18 480.311C408.286 480.062 410.42 480.306 412.416 481.022C417.266 482.393 422.04 484.019 426.719 485.893C429.151 486.953 431.645 487.867 434.186 488.629C439.733 490.082 445.597 489.731 450.931 487.627C452.803 486.885 454.835 485.622 454.935 483.558C455.005 482.405 454.104 481.393 453.514 480.401C453.133 479.77 452.743 479.138 452.332 478.527C450.331 475.621 447.888 471.732 444.335 471.942Z" fill="#2F2E41"/>
<path opacity="0.1" d="M444.335 471.942C432.644 472.644 421.094 469.217 409.383 468.856C407.93 468.76 406.47 468.851 405.039 469.126C403.55 469.531 402.107 470.092 400.735 470.8C394.46 473.726 387.964 476.152 381.478 478.567L374.021 481.343C372.571 481.999 370.998 482.341 369.407 482.345C368.696 482.345 367.825 482.195 367.405 482.786C366.194 484.59 366.764 487.226 367.565 489.25C367.825 489.902 368.266 490.613 368.966 490.684C369.458 490.65 369.94 490.528 370.388 490.323C371.739 489.962 373.09 490.874 374.491 491.024C376.213 491.205 377.814 490.223 379.446 489.621C382.148 488.619 385.091 488.619 387.934 488.178C392.688 487.386 397.102 485.171 401.226 482.656C402.725 481.586 404.403 480.792 406.18 480.311C408.286 480.062 410.42 480.306 412.416 481.022C417.266 482.393 422.04 484.019 426.719 485.893C429.151 486.953 431.645 487.867 434.186 488.629C439.733 490.082 445.597 489.731 450.931 487.627C452.803 486.885 454.835 485.622 454.935 483.558C455.005 482.405 454.104 481.393 453.514 480.401C453.133 479.77 452.743 479.138 452.332 478.527C450.331 475.621 447.888 471.732 444.335 471.942Z" fill="black"/>
<path d="M385.271 484.43C387.1 485.051 388.945 485.626 390.806 486.153C391.807 484.44 393.809 483.247 394.239 481.283C394.264 481.198 394.264 481.107 394.239 481.022C394.19 480.939 394.117 480.873 394.029 480.832C392.691 480.096 391.208 479.662 389.685 479.559C388.484 479.489 387.934 480.742 387.393 481.623C387.183 482.014 385.762 484.62 385.271 484.43Z" fill="#FBBEBE"/>
<path d="M387.834 483.207C387.286 483.114 386.765 482.909 386.301 482.603C385.838 482.298 385.443 481.899 385.141 481.433C384.891 480.982 384.611 480.371 384.09 480.431C383.57 480.491 383.399 481.032 383.289 481.503C382.943 483.279 382.437 485.02 381.778 486.705C381.118 488.398 379.998 489.873 378.545 490.964C377.864 491.435 377.114 491.786 376.443 492.287C375.888 492.779 375.296 493.228 374.672 493.63C374.23 493.828 373.775 493.995 373.31 494.131C372.626 494.389 371.975 494.725 371.369 495.133C370.829 495.443 370.372 495.88 370.037 496.406C369.872 496.669 369.776 496.97 369.758 497.28C369.741 497.59 369.802 497.9 369.937 498.18C370.077 498.41 370.265 498.608 370.488 498.76C370.71 498.913 370.963 499.015 371.228 499.062C371.763 499.142 372.306 499.142 372.84 499.062C374.972 498.911 377.104 498.721 379.236 498.531C380.134 498.472 381.028 498.348 381.908 498.16L383.299 497.779C384.094 497.569 384.91 497.448 385.732 497.418C385.971 497.396 386.212 497.42 386.442 497.488C386.933 497.649 387.283 498.14 387.793 498.24C388.133 498.273 388.475 498.228 388.794 498.11C390.35 497.776 391.938 497.611 393.529 497.619C394.229 497.619 395.05 497.438 395.37 496.817C395.771 496.035 395.11 495.163 394.84 494.321C394.711 493.786 394.637 493.238 394.62 492.688C394.5 491.325 394.102 490.001 393.449 488.799C392.908 487.797 392.167 486.695 392.548 485.632C392.737 485.295 392.859 484.924 392.908 484.54C392.758 482.816 388.814 483.427 387.834 483.207Z" fill="#2F2E41"/>
<path d="M426.809 453.162C424.734 452.251 423.072 450.601 422.145 448.532C421.955 448.091 421.794 447.62 421.604 447.179C420.994 445.685 420.04 444.356 418.822 443.3C418.693 443.164 418.538 443.055 418.366 442.981C418.194 442.907 418.008 442.869 417.821 442.869C417.635 442.925 417.467 443.03 417.335 443.173C417.203 443.315 417.112 443.491 417.07 443.681C416.958 444.089 416.931 444.515 416.99 444.934C417.092 445.919 417.259 446.897 417.491 447.86L418.061 450.446C418.137 450.841 418.254 451.228 418.411 451.598C418.655 452.032 418.978 452.416 419.362 452.731C419.883 453.212 420.413 453.673 420.944 454.134C421.25 454.401 421.586 454.633 421.945 454.825C422.504 455.092 423.102 455.268 423.716 455.347C426.104 455.658 428.383 456.538 430.362 457.912C430.362 457.912 430.362 456.178 430.362 455.988C430.337 455.484 430.163 454.999 429.862 454.595C428.945 453.926 427.909 453.44 426.809 453.162Z" fill="#FBBEBE"/>
<path opacity="0.1" d="M426.809 453.162C424.734 452.251 423.072 450.601 422.145 448.532C421.955 448.091 421.794 447.62 421.604 447.179C420.994 445.685 420.04 444.356 418.822 443.3C418.693 443.164 418.538 443.055 418.366 442.981C418.194 442.907 418.008 442.869 417.821 442.869C417.635 442.925 417.467 443.03 417.335 443.173C417.203 443.315 417.112 443.491 417.07 443.681C416.958 444.089 416.931 444.515 416.99 444.934C417.092 445.919 417.259 446.897 417.491 447.86L418.061 450.446C418.137 450.841 418.254 451.228 418.411 451.598C418.655 452.032 418.978 452.416 419.362 452.731C419.883 453.212 420.413 453.673 420.944 454.134C421.25 454.401 421.586 454.633 421.945 454.825C422.504 455.092 423.102 455.268 423.716 455.347C426.104 455.658 428.383 456.538 430.362 457.912C430.362 457.912 430.362 456.178 430.362 455.988C430.337 455.484 430.163 454.999 429.862 454.595C428.945 453.926 427.909 453.44 426.809 453.162Z" fill="black"/>
<path d="M450.611 433.378C452.181 433.378 453.453 432.095 453.453 430.512C453.453 428.929 452.181 427.646 450.611 427.646C449.041 427.646 447.768 428.929 447.768 430.512C447.768 432.095 449.041 433.378 450.611 433.378Z" fill="#2F2E41"/>
<path d="M448.849 428.788C448.088 428.605 447.286 428.72 446.607 429.109C446.279 429.401 446.016 429.76 445.836 430.161C445.2 431.258 444.702 432.429 444.355 433.649C444.105 434.651 444.065 435.783 443.744 436.816C443.164 438.72 441.673 440.333 441.502 442.318C441.422 443.21 441.572 444.252 440.922 444.853C440.763 444.991 440.592 445.115 440.411 445.224C439.961 445.525 439.579 445.918 439.29 446.377C439.094 446.785 438.827 447.155 438.5 447.469C437.919 447.9 436.958 447.86 436.678 448.471C436.398 449.082 437.128 449.914 436.958 450.636C436.788 451.357 436.158 451.498 435.707 451.899C435.177 452.46 434.804 453.151 434.626 453.903C433.675 454.087 432.695 454.061 431.755 453.827C430.815 453.593 429.936 453.158 429.181 452.55C429.842 454.559 430.13 456.671 430.032 458.784C430.082 459.122 430.063 459.466 429.977 459.797C429.891 460.127 429.74 460.437 429.532 460.708C431.79 460.876 434.026 461.266 436.208 461.87C437.153 462.186 438.175 462.186 439.12 461.87C439.627 461.598 440.081 461.239 440.461 460.808C441.663 459.585 442.924 458.253 443.214 456.559C443.286 455.602 443.303 454.641 443.264 453.683C443.378 452.493 443.623 451.32 443.995 450.185C444.628 447.828 445.054 445.42 445.266 442.989C445.396 441.486 446.697 440.283 447.378 438.98C448.659 436.445 449.98 433.809 450.07 430.963C450.11 430.041 449.79 428.888 448.849 428.788Z" fill="#2F2E41"/>
<path opacity="0.1" d="M448.849 428.788C448.088 428.605 447.286 428.72 446.607 429.109C446.279 429.401 446.016 429.76 445.836 430.161C445.2 431.258 444.702 432.429 444.355 433.649C444.105 434.651 444.065 435.783 443.744 436.816C443.164 438.72 441.673 440.333 441.502 442.318C441.422 443.21 441.572 444.252 440.922 444.853C440.763 444.991 440.592 445.115 440.411 445.224C439.961 445.525 439.579 445.918 439.29 446.377C439.094 446.785 438.827 447.155 438.5 447.469C437.919 447.9 436.958 447.86 436.678 448.471C436.398 449.082 437.128 449.914 436.958 450.636C436.788 451.357 436.158 451.498 435.707 451.899C435.177 452.46 434.804 453.151 434.626 453.903C433.675 454.087 432.695 454.061 431.755 453.827C430.815 453.593 429.936 453.158 429.181 452.55C429.842 454.559 430.13 456.671 430.032 458.784C430.082 459.122 430.063 459.466 429.977 459.797C429.891 460.127 429.74 460.437 429.532 460.708C431.79 460.876 434.026 461.266 436.208 461.87C437.153 462.186 438.175 462.186 439.12 461.87C439.627 461.598 440.081 461.239 440.461 460.808C441.663 459.585 442.924 458.253 443.214 456.559C443.286 455.602 443.303 454.641 443.264 453.683C443.378 452.493 443.623 451.32 443.995 450.185C444.628 447.828 445.054 445.42 445.266 442.989C445.396 441.486 446.697 440.283 447.378 438.98C448.659 436.445 449.98 433.809 450.07 430.963C450.11 430.041 449.79 428.888 448.849 428.788Z" fill="black"/>
<path d="M446.187 474.407C443.754 473.245 441.973 471.09 440.001 469.236C436.248 465.698 431.653 463.223 427.7 459.886C425.077 457.691 422.695 455.135 419.863 453.291C417.325 451.681 414.452 450.676 411.465 450.355C411.136 450.279 410.793 450.279 410.464 450.355C410.086 450.516 409.758 450.775 409.513 451.106C408.237 452.548 407.101 454.109 406.12 455.767C401.116 464.285 393.999 471.441 388.104 479.358C387.968 479.523 387.869 479.714 387.814 479.919C387.789 480.226 387.866 480.533 388.034 480.791L389.235 483.136C389.905 484.459 390.986 485.993 392.428 485.732C393.077 485.544 393.657 485.172 394.099 484.66L399.484 479.499L405.129 474.097C408.432 470.94 411.795 467.703 413.957 463.654C415.639 466.58 418.632 468.494 420.673 471.17C421.454 472.173 422.095 473.305 422.795 474.387C423.906 476.111 425.178 477.735 426.439 479.398L432.915 487.666C433.735 488.834 434.751 489.851 435.917 490.673C437.514 491.543 439.295 492.021 441.112 492.066C443.545 492.283 445.987 492.37 448.429 492.327C450.299 492.402 452.162 492.06 453.884 491.324C454.742 490.947 455.475 490.333 455.998 489.554C456.52 488.775 456.811 487.863 456.836 486.925C456.737 485.954 456.418 485.019 455.905 484.189C453.563 480.01 450.541 476.482 446.187 474.407Z" fill="#2F2E41"/>
<path d="M452.362 434.701C453.573 434.701 454.554 433.713 454.554 432.496C454.554 431.278 453.573 430.291 452.362 430.291C451.152 430.291 450.17 431.278 450.17 432.496C450.17 433.713 451.152 434.701 452.362 434.701Z" fill="#E8E8F0"/>
<path d="M451.882 430.843C452.371 431.827 452.457 432.963 452.122 434.01C451.776 435.037 451.302 436.017 450.711 436.926C450.202 437.862 449.588 438.736 448.879 439.532C452.262 439.692 455.535 438.369 458.508 436.766C460.91 435.473 463.302 433.879 464.583 431.464C464.201 431.555 463.804 431.565 463.418 431.492C463.031 431.42 462.665 431.267 462.341 431.043C461.696 430.599 461.119 430.062 460.63 429.45L458.938 427.545C458.555 427.127 458.219 426.666 457.937 426.172C457.566 425.497 457.409 424.724 457.487 423.958C456.812 424.662 456.06 425.287 455.245 425.822C454.034 426.613 452.703 427.185 451.482 427.966C451.061 428.247 450.1 428.688 450.35 429.249C450.601 429.81 451.542 430.241 451.882 430.843Z" fill="#FBBEBE"/>
<path opacity="0.1" d="M451.882 430.843C452.371 431.827 452.457 432.963 452.122 434.01C451.776 435.037 451.302 436.017 450.711 436.926C450.202 437.862 449.588 438.736 448.879 439.532C452.262 439.692 455.535 438.369 458.508 436.766C460.91 435.473 463.302 433.879 464.583 431.464C464.201 431.555 463.804 431.565 463.418 431.492C463.031 431.42 462.665 431.267 462.341 431.043C461.696 430.599 461.119 430.062 460.63 429.45L458.938 427.545C458.555 427.127 458.219 426.666 457.937 426.172C457.566 425.497 457.409 424.724 457.487 423.958C456.812 424.662 456.06 425.287 455.245 425.822C454.034 426.613 452.703 427.185 451.482 427.966C451.061 428.247 450.1 428.688 450.35 429.249C450.601 429.81 451.542 430.241 451.882 430.843Z" fill="black"/>
<path d="M451.922 431.173C451.579 431.656 451.395 432.234 451.395 432.827C451.395 433.419 451.579 433.997 451.922 434.48C452.022 434.6 452.382 435.352 452.533 435.362C452.606 435.356 452.678 435.335 452.743 435.301C452.808 435.266 452.866 435.219 452.913 435.162C453.683 434.358 454.398 433.504 455.055 432.606C455.725 431.71 456.689 431.078 457.777 430.822C459.126 430.771 460.451 431.185 461.531 431.995C462.033 432.224 462.475 432.567 462.822 432.997C463.063 433.439 463.207 433.928 463.242 434.43C463.569 437.455 463.696 440.498 463.623 443.54C463.68 445.737 463.536 447.934 463.192 450.104C462.972 451.217 462.652 452.309 462.502 453.442C462.384 454.439 462.337 455.444 462.361 456.448V460.637C462.335 461.406 462.388 462.175 462.522 462.932C462.722 463.844 463.152 464.696 463.442 465.588C463.742 466.613 463.946 467.663 464.053 468.725L464.624 473.055C464.804 474.418 464.944 475.911 464.113 477.063C463.743 477.554 463.252 477.955 462.872 478.446C461.461 480.29 461.871 482.926 461.321 485.181C460.857 486.832 459.9 488.3 458.578 489.39C458.107 489.857 457.539 490.215 456.915 490.438C456.29 490.662 455.625 490.745 454.965 490.683C453.203 490.352 452.152 488.518 451.672 486.785C451.191 485.051 451.021 483.167 449.98 481.703C449.025 480.596 447.896 479.651 446.637 478.907C445.364 478.152 444.429 476.936 444.025 475.51C443.915 474.879 444.025 474.227 443.915 473.586C443.821 472.778 443.512 472.011 443.021 471.364C442.529 470.717 441.874 470.214 441.122 469.908C440.221 469.557 439.12 469.427 438.6 468.605C439.889 467.797 440.828 466.535 441.232 465.067C441.631 463.61 441.846 462.108 441.873 460.597L442.173 455.586C442.313 453.331 442.373 451.107 443.364 449.082C443.805 448.18 444.365 447.328 444.816 446.436C445.426 445.183 445.944 443.887 446.367 442.558C447.088 440.493 447.808 438.429 448.449 436.344C448.699 435.332 449.082 434.358 449.59 433.448C450.13 432.506 450.911 431.373 451.922 431.173Z" fill="#E8E8F0"/>
<path d="M440.762 463.885H442.093L442.373 461.881C442.41 461.478 442.504 461.083 442.654 460.708C442.873 460.31 443.132 459.934 443.424 459.586C444.725 457.732 444.635 455.276 444.956 453.021C445.536 450.042 446.519 447.156 447.878 444.443L450.461 438.68C450.696 438.209 450.883 437.715 451.021 437.207C451.129 436.645 451.183 436.075 451.181 435.503C451.181 434.611 451.462 431.364 451.492 430.492C451.492 430.161 450.761 430.342 450.611 430.051C450.29 429.41 449.85 431.144 449.24 431.524C448.666 431.963 448.248 432.574 448.048 433.268C447.488 434.711 447.148 436.275 446.627 437.708C446.175 439.204 445.344 440.557 444.215 441.636C443.684 442.097 443.074 442.468 442.573 442.969C440.972 444.553 440.812 447.068 440.762 449.333C440.722 450.716 440.462 463.885 440.762 463.885Z" fill="#2F2E41"/>
<path d="M459.919 428.778C459.301 429.102 458.765 429.564 458.353 430.129C457.942 430.694 457.666 431.346 457.547 432.035C457.319 433.417 456.915 434.764 456.346 436.044C454.725 438.87 450.591 439.692 449.44 442.749C449.15 443.777 448.996 444.838 448.979 445.906C448.779 448.1 448.059 450.215 447.838 452.4C447.728 454.1 447.768 455.807 447.958 457.501L449.41 474.759C449.688 477.297 449.542 479.864 448.979 482.355C450.467 482.568 451.984 482.316 453.323 481.634C454.675 481.012 455.916 480.161 457.227 479.439C459.469 478.196 461.951 477.324 463.923 475.671C464.276 475.389 464.581 475.05 464.824 474.669C465.125 473.944 465.327 473.182 465.424 472.404C465.595 471.793 465.812 471.196 466.075 470.62C466.797 468.878 467.425 467.098 467.957 465.288C468.318 464.091 468.605 462.872 468.817 461.64C468.978 460.638 469.068 459.636 469.148 458.633C469.252 457.079 469.562 455.546 470.069 454.073C471.324 450.554 472.037 446.864 472.18 443.129C472.219 442.592 472.182 442.053 472.07 441.526C471.851 440.882 471.555 440.266 471.19 439.692C470.589 438.559 470.189 437.317 469.668 436.164C468.249 433.626 466.215 431.486 463.753 429.941C462.592 429.149 461.231 428.307 459.919 428.778Z" fill="#2F2E41"/>
<path d="M429.682 456.94C428.654 456.399 427.724 455.692 426.929 454.845C426.569 454.424 426.269 453.953 425.928 453.532C425 452.532 423.794 451.834 422.465 451.528C421.151 451.238 419.807 451.107 418.461 451.137C417.558 451.076 416.652 451.185 415.789 451.458C415.359 451.602 414.971 451.852 414.662 452.184C414.352 452.517 414.131 452.922 414.017 453.362C413.981 453.907 414.086 454.452 414.323 454.943C414.56 455.435 414.92 455.857 415.369 456.168C416.15 456.81 417.073 457.257 418.061 457.471C418.866 457.614 419.678 457.711 420.493 457.761C425.278 458.263 429.552 460.868 433.745 463.243C437.429 465.341 441.185 467.292 445.016 469.096C445.164 467.95 445.228 466.794 445.206 465.639C445.206 464.777 445.136 463.454 444.325 462.943C443.172 462.459 441.971 462.1 440.742 461.87C438.272 461.063 435.86 460.085 433.525 458.944C432.204 458.373 430.933 457.671 429.682 456.94Z" fill="#FBBEBE"/>
<path d="M450.611 429.86C455.321 429.86 459.139 426.015 459.139 421.271C459.139 416.528 455.321 412.683 450.611 412.683C445.901 412.683 442.083 416.528 442.083 421.271C442.083 426.015 445.901 429.86 450.611 429.86Z" fill="#FBBEBE"/>
<path d="M462.351 438.509C461.671 439.466 461.116 440.507 460.7 441.606C459.699 443.77 457.998 445.615 457.167 447.91C456.336 450.205 456.326 453.151 454.614 455.025C454.272 455.312 454.013 455.686 453.864 456.107C453.857 456.37 453.83 456.631 453.784 456.889C453.533 457.571 452.422 457.601 452.212 458.302C452.152 458.503 452.212 458.723 452.112 458.924C451.942 459.375 451.341 459.445 450.951 459.715C450.12 460.277 450.291 461.58 449.7 462.391C449.442 462.694 449.109 462.922 448.735 463.054C448.361 463.186 447.958 463.217 447.568 463.143C446.791 462.984 446.045 462.704 445.356 462.311C445.108 462.175 444.836 462.09 444.555 462.061C444.223 462.072 443.902 462.184 443.634 462.381C442.88 462.938 442.274 463.673 441.873 464.522C441.471 465.37 441.285 466.304 441.332 467.242C441.447 469.12 441.895 470.963 442.654 472.684C442.738 472.982 442.885 473.259 443.084 473.496C443.382 473.73 443.743 473.87 444.121 473.899C444.498 473.927 444.876 473.843 445.206 473.656C445.859 473.268 446.554 472.955 447.278 472.724C448.599 472.483 449.89 473.395 451.231 473.315C452.208 473.171 453.128 472.766 453.894 472.143C455.241 471.338 456.45 470.323 457.477 469.136C458.058 468.364 458.478 467.492 458.998 466.671C459.661 465.672 460.379 464.711 461.15 463.794L466.075 457.781C466.564 457.21 467.006 456.6 467.396 455.957C467.834 455.08 468.169 454.155 468.397 453.201C468.923 451.613 469.259 449.968 469.398 448.3C469.428 446.922 469.308 445.544 469.038 444.191C468.888 442.845 468.551 441.526 468.037 440.273C466.966 438.008 464.363 436.164 462.351 438.509Z" fill="#2F2E41"/>
<path d="M479.487 427.305C479.494 425.782 479.141 424.28 478.455 422.921C477.769 421.562 476.772 420.385 475.543 419.487C475.503 416.783 474.507 414.18 472.731 412.141C470.955 410.103 468.515 408.761 465.845 408.353C465.331 405.789 463.93 403.488 461.887 401.858C459.844 400.228 457.292 399.372 454.681 399.443C452.07 399.514 449.567 400.506 447.616 402.244C445.664 403.983 444.389 406.356 444.015 408.944C440.471 408.143 437.229 409.185 436.638 411.37C436.047 413.554 438.55 416.381 442.283 417.383C443.461 417.713 444.687 417.835 445.906 417.744C446.776 419.026 447.903 420.112 449.217 420.932C450.53 421.752 452.001 422.287 453.533 422.504C453.987 424.57 455.007 426.469 456.478 427.987C457.949 429.506 459.813 430.585 461.861 431.103C462.431 432.472 463.312 433.69 464.433 434.661C464.433 434.931 464.433 435.212 464.433 435.492C464.433 436.441 464.62 437.381 464.983 438.258C465.345 439.134 465.877 439.931 466.547 440.602C467.217 441.273 468.013 441.805 468.888 442.168C469.764 442.531 470.702 442.718 471.65 442.718C472.598 442.718 473.536 442.531 474.411 442.168C475.287 441.805 476.083 441.273 476.753 440.602C477.423 439.931 477.954 439.134 478.317 438.258C478.68 437.381 478.866 436.441 478.866 435.492C478.867 434.39 478.631 433.299 478.176 432.295C479.057 430.782 479.51 429.056 479.487 427.305Z" fill="#805AD5"/>
<path opacity="0.1" d="M439.04 411.831C439.631 409.646 442.874 408.604 446.417 409.405C446.837 406.775 448.173 404.379 450.188 402.64C452.203 400.902 454.767 399.933 457.427 399.905H458.158C457.139 399.594 456.08 399.435 455.015 399.434C452.355 399.462 449.791 400.431 447.776 402.169C445.761 403.908 444.425 406.304 444.005 408.934C440.462 408.133 437.219 409.175 436.628 411.36C436.037 413.544 438.54 416.371 442.273 417.373C442.973 417.567 443.691 417.691 444.415 417.744C440.842 416.671 438.45 414.066 439.04 411.831Z" fill="black"/>
<path opacity="0.1" d="M466.796 435.914C466.781 435.64 466.781 435.366 466.796 435.092C465.668 434.127 464.787 432.907 464.223 431.534C462.172 431.018 460.305 429.939 458.834 428.418C457.363 426.897 456.345 424.995 455.896 422.925C454.361 422.713 452.889 422.18 451.573 421.362C450.258 420.544 449.128 419.458 448.259 418.175C447.548 418.234 446.833 418.214 446.127 418.115C447.003 419.295 448.105 420.29 449.367 421.042C450.63 421.793 452.029 422.287 453.483 422.494C453.938 424.56 454.957 426.459 456.428 427.978C457.899 429.496 459.763 430.575 461.811 431.093C462.381 432.463 463.262 433.681 464.383 434.651C464.383 434.921 464.383 435.202 464.383 435.483C464.351 437.425 465.088 439.302 466.432 440.702C467.777 442.103 469.62 442.914 471.56 442.959C470.145 442.409 468.93 441.44 468.079 440.181C467.228 438.922 466.78 437.434 466.796 435.914Z" fill="black"/>
<path d="M454.522 424.424C455.098 423.986 455.091 423.005 454.506 422.234C453.921 421.462 452.979 421.193 452.403 421.631C451.826 422.07 451.833 423.051 452.418 423.822C453.003 424.593 453.945 424.863 454.522 424.424Z" fill="#FBBEBE"/>
<defs>
<linearGradient id="paint0_linear" x1="767.77" y1="571.199" x2="767.77" y2="398.702" gradientUnits="userSpaceOnUse">
<stop stop-color="#808080" stop-opacity="0.25"/>
<stop offset="0.54" stop-color="#808080" stop-opacity="0.12"/>
<stop offset="1" stop-color="#808080" stop-opacity="0.1"/>
</linearGradient>
<linearGradient id="paint1_linear" x1="62465.9" y1="67182.3" x2="62465.9" y2="56973.8" gradientUnits="userSpaceOnUse">
<stop stop-color="#808080" stop-opacity="0.25"/>
<stop offset="0.54" stop-color="#808080" stop-opacity="0.12"/>
<stop offset="1" stop-color="#808080" stop-opacity="0.1"/>
</linearGradient>
</defs>
</svg>
