<svg width="767" height="468" viewBox="0 0 767 468" fill="none" xmlns="http://www.w3.org/2000/svg">
<path d="M118.226 406.484C124.506 429.688 146.018 444.059 146.018 444.059C146.018 444.059 157.348 420.809 151.067 397.605C144.787 374.4 123.275 360.03 123.275 360.03C123.275 360.03 111.945 383.28 118.226 406.484Z" fill="#3F3D56"/>
<path d="M127.454 401.497C144.688 418.265 146.793 444.04 146.793 444.04C146.793 444.04 120.957 442.63 103.723 425.863C86.4889 409.095 84.3839 383.32 84.3839 383.32C84.3839 383.32 110.221 384.73 127.454 401.497Z" fill="#805AD5"/>
<path d="M690.064 466.128H83.2068V468H690.064V466.128Z" fill="#2F2E41"/>
<path d="M154.524 467.064H130.175V442.728H154.524V467.064ZM132.048 465.192H152.651V444.6H132.048V465.192Z" fill="#3F3D56"/>
<path d="M206.357 18.5576H0V224.802H206.357V18.5576Z" fill="#3C366B"/>
<path d="M206.357 69.8702V74.6039C203.212 72.5214 200.673 69.6454 198.997 66.2672C196.25 60.6514 196.337 54.1783 196.424 47.9164C196.524 40.4742 196.623 33.4544 191.899 28.8823C186.703 23.8628 178.386 24.571 170.344 25.2544C169.399 25.3289 168.454 25.4158 167.522 25.4904C159.454 26.0992 150.466 24.0616 146.103 18.5576H151.548C155.538 21.2412 161.642 22.1855 167.248 21.763C168.156 21.7009 169.088 21.614 170.02 21.5394C178.486 20.8189 188.083 19.9988 194.485 26.1986C200.377 31.8889 200.265 40.0642 200.153 47.9661C200.066 53.7931 199.992 59.8065 202.354 64.6271C203.334 66.6187 204.693 68.3998 206.357 69.8702Z" fill="#805AD5"/>
<path d="M206.357 102.609V108.15C205.451 106.967 204.435 105.873 203.323 104.882C196.909 99.2292 187.697 97.9867 178.797 96.7692C177.641 96.62 176.509 96.4585 175.378 96.297C160.946 94.2221 151.995 89.2648 148.03 81.1765C145.282 75.5607 145.369 69.0876 145.456 62.8257C145.556 55.3836 145.655 48.3638 140.932 43.7916C135.735 38.7721 127.419 39.4803 119.376 40.1637C118.431 40.2382 117.486 40.3251 116.554 40.3997C106.187 41.1824 94.29 37.5918 92.6615 27.8884C92.1022 24.5586 92.935 21.5022 94.1657 18.5577H98.2431C96.8757 21.5147 95.8563 24.3723 96.3411 27.2672C97.5718 34.6721 107.542 37.3309 116.281 36.6724C117.188 36.6103 118.12 36.5233 119.053 36.4487C127.518 35.7282 137.115 34.9081 143.517 41.1079C149.41 46.7983 149.298 54.9735 149.186 62.8754C149.099 68.7025 149.024 74.7159 151.386 79.5365C154.767 86.4445 162.785 90.7184 175.913 92.6069C177.031 92.7685 178.163 92.93 179.294 93.0791C188.742 94.3588 198.525 95.6882 205.797 102.087C205.984 102.248 206.17 102.422 206.357 102.609Z" fill="#805AD5"/>
<path d="M206.357 196.015V203.668C201.869 198.897 198.115 192.35 195.243 184.162C194.634 182.423 194.05 180.646 193.465 178.869C190.246 169.141 186.914 159.09 178.983 152.666C170.505 145.808 158.36 144.292 146.613 142.826C145.108 142.64 143.604 142.453 142.112 142.255C123.068 139.733 111.271 133.732 106.037 123.916C102.408 117.095 102.519 109.243 102.631 101.652C102.768 92.6317 102.905 84.1086 96.6643 78.5673C89.8148 72.4794 78.8381 73.3366 68.2344 74.1691C66.9788 74.2685 65.7357 74.3679 64.5175 74.4549C50.8308 75.3991 35.1303 71.0506 32.9921 59.2847C31.9355 53.5198 34.633 48.4134 37.2311 43.4685C38.7229 40.6357 40.14 37.9396 40.861 35.169C42.3776 29.4662 40.5005 23.0428 36.3361 18.5576H42.4273C44.1851 21.1091 45.381 24.0044 45.9361 27.0521C46.4911 30.0999 46.3925 33.2306 45.647 36.2375C44.7893 39.4802 43.1981 42.5118 41.6566 45.444C39.2822 49.9416 37.0571 54.1907 37.8402 58.5392C39.4812 67.5096 52.6209 70.74 64.1445 69.9448C65.3503 69.8578 66.581 69.7584 67.8117 69.6715C78.9749 68.7894 91.6297 67.8079 100.083 75.3246C107.852 82.2201 107.703 92.1347 107.554 101.714C107.454 108.783 107.343 116.077 110.45 121.928C114.913 130.29 125.505 135.483 142.821 137.782C144.288 137.981 145.78 138.167 147.271 138.353C159.752 139.906 172.643 141.509 182.228 149.274C191.215 156.555 194.758 167.228 198.164 177.552C198.749 179.317 199.333 181.056 199.93 182.783C201.51 187.445 203.669 191.89 206.357 196.015Z" fill="#805AD5"/>
<path d="M0 101.838C5.66859 108.696 17.6895 111.231 28.4673 110.486C29.6855 110.399 30.9286 110.299 32.1842 110.2C42.7879 109.367 53.7646 108.51 60.6141 114.598C66.8546 120.139 66.7178 128.662 66.5811 137.683C66.4692 145.274 66.3573 153.126 69.9872 159.947C75.2207 169.762 87.0178 175.763 106.062 178.285C107.554 178.484 109.058 178.671 110.562 178.857C122.31 180.323 134.455 181.839 142.933 188.697C150.864 195.12 154.196 205.172 157.415 214.9C158 216.677 158.584 218.453 159.193 220.193C159.752 221.796 160.349 223.324 160.971 224.802H166.291C165.359 222.777 164.563 220.752 163.879 218.814C163.283 217.087 162.698 215.347 162.114 213.583C158.708 203.258 155.165 192.586 146.178 185.305C136.593 177.54 123.702 175.937 111.221 174.384C109.729 174.198 108.238 174.011 106.771 173.813C89.4543 171.514 78.863 166.321 74.4003 157.959C71.2925 152.107 71.4043 144.814 71.5038 137.745C71.653 128.166 71.8022 118.251 64.0327 111.355C55.5796 103.839 42.9247 104.82 31.7615 105.702C30.5309 105.789 29.3002 105.889 28.0944 105.976C16.5707 106.771 3.43102 103.54 1.79011 94.5701C1.00698 90.2215 3.23212 85.9724 5.60646 81.4748C7.14792 78.5426 8.73911 75.5111 9.59685 72.2683C11.9339 63.3973 7.99324 53.5696 2.7972e-05 48.2023V54.2902C4.36335 58.7879 6.35234 65.3604 4.81087 71.1998C4.08987 73.9704 2.67272 76.6665 1.18098 79.4993C0.783193 80.2572 0.385383 81.0026 2.7972e-05 81.7729L0 101.838Z" fill="#805AD5"/>
<path d="M91.2817 224.802H86.1228C85.8493 223.995 85.5882 223.175 85.3148 222.355C82.0951 212.626 78.7635 202.575 70.8325 196.152C62.3544 189.293 50.2093 187.778 38.4619 186.312C36.9577 186.125 35.4536 185.939 33.9618 185.74C17.1549 183.516 5.97937 178.571 0 170.694V158.332C0.384289 160.8 1.16065 163.191 2.29972 165.414C6.76254 173.775 17.3539 178.969 34.6704 181.267C36.1373 181.466 37.629 181.652 39.1207 181.839C51.6016 183.392 64.4926 184.995 74.0771 192.76C83.0648 200.041 86.6076 210.713 90.0137 221.038C90.4364 222.305 90.8466 223.56 91.2817 224.802Z" fill="#805AD5"/>
<path d="M486.057 18.5576H279.7V224.802H486.057V18.5576Z" fill="#3C366B"/>
<path d="M379.149 33.467C379.148 45.0866 376.071 56.4992 370.231 66.5461C364.39 76.593 355.993 84.9165 345.894 90.6715C335.794 96.4266 324.35 99.4083 312.724 99.314C301.099 99.2197 289.705 96.0527 279.7 90.1345V18.5577H377.446C378.584 23.4457 379.155 28.4484 379.149 33.467Z" fill="#805AD5"/>
<path d="M432.603 114.225C454.573 114.225 472.382 96.4251 472.382 74.4674C472.382 52.5096 454.573 34.7094 432.603 34.7094C410.633 34.7094 392.823 52.5096 392.823 74.4674C392.823 96.4251 410.633 114.225 432.603 114.225Z" fill="#805AD5"/>
<path d="M343.099 187.529C358.89 187.529 371.69 174.735 371.69 158.953C371.69 143.171 358.89 130.377 343.099 130.377C327.308 130.377 314.507 143.171 314.507 158.953C314.507 174.735 327.308 187.529 343.099 187.529Z" fill="#805AD5"/>
<path d="M486.057 191.008V224.802H445.146C443.409 219.366 443.34 213.535 444.948 208.059C446.556 202.584 449.767 197.715 454.168 194.079C458.569 190.444 463.958 188.208 469.642 187.661C475.325 187.114 481.042 188.279 486.057 191.008H486.057Z" fill="#805AD5"/>
<path d="M415.199 165.165C419.319 165.165 422.658 161.828 422.658 157.711C422.658 153.594 419.319 150.256 415.199 150.256C411.08 150.256 407.741 153.594 407.741 157.711C407.741 161.828 411.08 165.165 415.199 165.165Z" fill="#6C63FF"/>
<path d="M767 18.5576H560.643V224.802H767V18.5576Z" fill="#3C366B"/>
<path d="M661.335 18.5577V103.043H560.643V108.013H666.308V18.5577H661.335Z" fill="#805AD5"/>
<path d="M758.46 224.802L767 212.664V204.029L752.381 224.802H758.46ZM723.777 135.869L678.018 200.91L712.017 224.802H720.657L684.942 199.705L724.983 142.789L767 172.322V166.246L723.777 135.869Z" fill="#6C63FF"/>
<path d="M647.661 127.631L621.295 153.983L647.661 180.335L674.028 153.983L647.661 127.631ZM628.319 153.983L647.661 134.651L667.004 153.983L647.661 173.316L628.319 153.983Z" fill="#805AD5"/>
<path d="M371.325 127.764C381.152 127.764 389.119 119.802 389.119 109.98C389.119 100.158 381.152 92.196 371.325 92.196C361.498 92.196 353.532 100.158 353.532 109.98C353.532 119.802 361.498 127.764 371.325 127.764Z" fill="#FFB8B8"/>
<path d="M361.96 118.404C361.96 118.404 366.643 142.74 364.77 147.42C362.897 152.1 390.992 145.548 390.992 145.548C390.992 145.548 385.373 121.212 386.31 115.596C387.246 109.98 361.96 118.404 361.96 118.404Z" fill="#FFB8B8"/>
<path d="M331.056 202.644L332.928 227.916L342.224 267.605L345.103 278.46L349.786 261.612L345.103 223.236L343.513 205.958L331.056 202.644Z" fill="#FFB8B8"/>
<path d="M429.389 198.9V225.108C429.389 225.108 426.579 258.804 420.96 267.228C415.341 275.652 413.468 233.532 413.468 233.532L417.871 202.644L429.389 198.9Z" fill="#FFB8B8"/>
<path d="M346.04 280.332C346.04 280.332 341.357 285.948 345.103 343.044C348.849 400.14 343.23 441.324 355.405 441.324C355.405 441.324 351.659 453.492 361.96 454.428C372.262 455.364 376.944 456.3 377.881 453.492C378.817 450.684 380.69 437.58 377.881 437.58C377.881 437.58 377.881 441.324 379.754 426.348C381.627 411.372 381.627 340.236 386.309 330.876L401.294 365.508C401.294 365.508 401.294 381.42 404.103 388.908C406.913 396.396 411.595 439.452 411.595 439.452L410.659 446.004C410.659 446.004 433.135 449.748 434.071 446.004C435.008 442.26 435.008 436.644 434.071 434.772C433.135 432.9 433.135 432.9 435.008 429.156C436.881 425.412 436.881 422.604 435.944 419.796C435.008 416.988 435.008 356.148 435.008 356.148C435.008 356.148 433.135 282.204 421.897 278.46C410.659 274.716 346.04 280.332 346.04 280.332Z" fill="#2F2E41"/>
<path d="M358.214 446.94L350.722 460.044C350.722 460.044 339.016 455.832 341.357 466.596C361.492 468 375.54 466.128 375.54 466.128C375.54 466.128 380.222 468 381.159 465.192C382.095 462.384 378.818 452.556 376.008 452.556C373.199 452.556 358.214 446.94 358.214 446.94Z" fill="#2F2E41"/>
<path d="M412.532 443.196C412.532 443.196 405.04 460.044 407.849 460.98C410.659 461.916 435.944 465.66 437.818 466.596C439.691 467.532 449.056 468.468 449.992 462.852C450.929 457.236 445.31 455.364 445.31 455.364C445.31 455.364 435.008 453.492 432.198 444.132C429.389 434.772 412.532 443.196 412.532 443.196Z" fill="#2F2E41"/>
<path d="M392.865 142.74C392.865 142.74 367.579 138.06 361.96 142.74C356.341 147.42 332.929 156.78 332.929 161.46C332.929 166.14 345.103 212.004 345.103 212.004C345.103 212.004 338.548 281.268 345.103 283.14C351.659 285.012 362.897 279.396 376.008 285.948C389.119 292.5 426.579 280.332 426.579 280.332C426.579 280.332 412.532 220.428 416.278 209.196C420.024 197.964 422.833 159.588 422.833 159.588C422.833 159.588 406.913 142.74 392.865 142.74Z" fill="#319795"/>
<path d="M339.484 158.652L332.929 160.524C332.929 160.524 318.881 204.516 324.5 206.388C330.119 208.26 346.04 212.004 347.913 212.004C349.786 212.004 339.484 158.652 339.484 158.652Z" fill="#319795"/>
<path d="M407.849 153.972L422.833 159.588C422.833 159.588 442.5 196.092 437.818 200.772C433.135 205.452 412.532 210.132 412.532 210.132L407.849 153.972Z" fill="#319795"/>
<path d="M370.785 88.0142C369.305 87.7463 367.784 87.8134 366.334 88.2106C365.173 88.7244 364.104 89.425 363.17 90.2846C361.476 91.6342 359.666 92.8326 357.762 93.8659C356.244 94.6893 354.613 95.4514 353.554 96.8142C353.053 97.5029 352.653 98.2595 352.366 99.0612C350.541 103.72 350.05 108.794 350.95 113.716C351.051 114.415 351.261 115.094 351.573 115.728C352.547 117.52 354.697 118.227 356.508 119.166C359.946 120.95 362.552 123.954 365.372 126.608C366.42 127.653 367.597 128.56 368.875 129.306C372.898 131.499 377.816 130.783 382.332 130.008C382.652 130.007 382.968 129.944 383.264 129.82C383.559 129.697 383.827 129.516 384.052 129.288C384.277 129.061 384.454 128.791 384.575 128.495C384.695 128.198 384.755 127.881 384.752 127.561L388.317 111.536C388.963 109.162 389.271 106.709 389.231 104.248C388.982 100.358 386.875 94.9697 384.018 92.2065C380.69 88.9869 375.135 88.4746 370.785 88.0142Z" fill="#2F2E41"/>
<path d="M250.272 452.95C254.354 452.95 257.663 449.643 257.663 445.563C257.663 441.484 254.354 438.177 250.272 438.177C246.191 438.177 242.882 441.484 242.882 445.563C242.882 449.643 246.191 452.95 250.272 452.95Z" fill="#805AD5"/>
<path d="M250.272 466.902C246.05 466.902 241.922 465.65 238.411 463.306C234.9 460.961 232.164 457.628 230.548 453.729C228.932 449.83 228.509 445.54 229.333 441.401C230.157 437.261 232.19 433.459 235.176 430.475C238.162 427.491 241.966 425.458 246.107 424.635C250.249 423.812 254.541 424.234 258.443 425.849C262.344 427.464 265.678 430.199 268.024 433.708C270.37 437.218 271.622 441.343 271.622 445.563C271.616 451.221 269.365 456.645 265.362 460.645C261.36 464.645 255.933 466.895 250.272 466.902ZM250.272 425.867C246.375 425.867 242.564 427.022 239.323 429.186C236.083 431.35 233.557 434.427 232.065 438.026C230.573 441.625 230.183 445.585 230.943 449.406C231.704 453.227 233.581 456.737 236.337 459.491C239.093 462.246 242.605 464.122 246.428 464.882C250.251 465.642 254.213 465.252 257.814 463.761C261.415 462.27 264.493 459.746 266.659 456.506C268.824 453.267 269.98 449.459 269.98 445.563C269.974 440.341 267.896 435.335 264.201 431.642C260.507 427.95 255.497 425.872 250.272 425.867Z" fill="#2F2E41"/>
<path d="M609.891 453.886C613.973 453.886 617.282 450.579 617.282 446.499C617.282 442.42 613.973 439.113 609.891 439.113C605.81 439.113 602.501 442.42 602.501 446.499C602.501 450.579 605.81 453.886 609.891 453.886Z" fill="#805AD5"/>
<path d="M609.891 467.838C605.669 467.838 601.541 466.586 598.03 464.241C594.519 461.897 591.783 458.564 590.167 454.665C588.551 450.766 588.128 446.476 588.952 442.336C589.776 438.197 591.809 434.395 594.795 431.411C597.781 428.427 601.585 426.394 605.726 425.571C609.868 424.748 614.16 425.17 618.062 426.785C621.963 428.4 625.297 431.135 627.643 434.644C629.989 438.153 631.241 442.279 631.241 446.499C631.235 452.157 628.983 457.58 624.981 461.581C620.978 465.581 615.552 467.831 609.891 467.838ZM609.891 426.802C605.994 426.802 602.183 427.958 598.942 430.122C595.702 432.286 593.176 435.363 591.684 438.962C590.192 442.561 589.802 446.521 590.562 450.342C591.323 454.163 593.2 457.672 595.956 460.427C598.712 463.182 602.224 465.058 606.047 465.818C609.869 466.578 613.832 466.188 617.433 464.697C621.034 463.206 624.112 460.681 626.278 457.442C628.443 454.203 629.599 450.395 629.599 446.499C629.593 441.277 627.515 436.271 623.82 432.578C620.125 428.886 615.116 426.808 609.891 426.802V426.802Z" fill="#2F2E41"/>
<path d="M609.891 412.702C613.973 412.702 617.282 409.395 617.282 405.315C617.282 401.236 613.973 397.929 609.891 397.929C605.81 397.929 602.501 401.236 602.501 405.315C602.501 409.395 605.81 412.702 609.891 412.702Z" fill="#805AD5"/>
<path d="M609.891 426.654C605.669 426.654 601.541 425.402 598.03 423.057C594.519 420.713 591.783 417.38 590.167 413.481C588.551 409.582 588.128 405.292 588.952 401.152C589.776 397.013 591.809 393.211 594.795 390.227C597.781 387.243 601.585 385.21 605.726 384.387C609.868 383.564 614.16 383.986 618.062 385.601C621.963 387.216 625.297 389.951 627.643 393.46C629.989 396.969 631.241 401.095 631.241 405.315C631.235 410.973 628.983 416.396 624.981 420.397C620.978 424.397 615.552 426.647 609.891 426.654ZM609.891 385.619C605.994 385.619 602.183 386.774 598.942 388.938C595.702 391.102 593.176 394.179 591.684 397.778C590.192 401.377 589.802 405.337 590.562 409.158C591.323 412.979 593.2 416.488 595.956 419.243C598.712 421.998 602.224 423.874 606.047 424.634C609.869 425.394 613.832 425.004 617.433 423.513C621.034 422.022 624.112 419.497 626.278 416.258C628.443 413.019 629.599 409.211 629.599 405.315C629.593 400.093 627.515 395.087 623.82 391.394C620.125 387.702 615.116 385.624 609.891 385.619Z" fill="#2F2E41"/>
</svg>
