<svg width="502" height="502" viewBox="0 0 502 502" fill="none" xmlns="http://www.w3.org/2000/svg">
<path d="M251.489 495.103C387.189 495.103 497.196 385.096 497.196 249.396C497.196 113.696 387.189 3.68945 251.489 3.68945C115.789 3.68945 5.78247 113.696 5.78247 249.396C5.78247 385.096 115.789 495.103 251.489 495.103Z" fill="#805AD5"/>
<path d="M251.719 494.996C299.73 495.075 346.702 481.017 386.777 454.578C377.723 405.097 343.266 402.278 343.266 402.278H153.254C153.254 402.278 120.739 404.946 110.584 450.464C151.901 479.527 201.204 495.084 251.719 494.996Z" fill="#319795"/>
<path d="M249.109 362.814C314.607 362.814 367.704 309.717 367.704 244.218C367.704 178.719 314.607 125.622 249.109 125.622C183.61 125.622 130.513 178.719 130.513 244.218C130.513 309.717 183.61 362.814 249.109 362.814Z" fill="#333333"/>
<path opacity="0.1" d="M210.833 343H286.823V403.794C286.823 413.868 282.822 423.53 275.7 430.655C268.577 437.78 258.917 441.785 248.842 441.789C238.766 441.789 229.101 437.786 221.976 430.66C214.85 423.535 210.847 413.871 210.847 403.794V343H210.833Z" fill="black"/>
<path d="M213.242 340.18H284.442C285.081 340.18 285.694 340.434 286.146 340.886C286.598 341.338 286.852 341.951 286.852 342.59V400.974C286.853 405.966 285.87 410.908 283.96 415.52C282.05 420.131 279.251 424.321 275.721 427.851C272.191 431.38 268 434.179 263.388 436.088C258.776 437.997 253.834 438.978 248.842 438.977C238.765 438.977 229.101 434.974 221.976 427.848C214.85 420.723 210.847 411.058 210.847 400.981V342.59C210.847 341.953 211.099 341.343 211.548 340.891C211.996 340.44 212.605 340.184 213.242 340.18Z" fill="#FDB797"/>
<path opacity="0.1" d="M210.969 371.696C235.46 380.846 262.419 380.92 286.96 371.904V362.555H210.969V371.696Z" fill="black"/>
<path d="M249.109 376.781C309.265 376.781 358.031 328.014 358.031 267.858C358.031 207.702 309.265 158.936 249.109 158.936C188.952 158.936 140.186 207.702 140.186 267.858C140.186 328.014 188.952 376.781 249.109 376.781Z" fill="#FDB797"/>
<path opacity="0.1" d="M171.521 168.781C171.521 168.781 217.428 261.961 346.919 207.848L316.771 160.575L263.327 141.394L171.521 168.781Z" fill="black"/>
<path d="M171.521 167.415C171.521 167.415 217.428 260.594 346.919 206.467L316.771 159.194L263.327 140.013L171.521 167.415Z" fill="#333333"/>
<path d="M171.119 161.1C174.214 151.519 179.564 142.82 186.718 135.734C208.143 114.554 243.269 110.088 261.285 85.937C265.6 92.6399 262.263 102.946 254.812 105.823C272.072 105.708 292.073 104.197 301.833 90.0005C304.245 95.6154 305.014 101.8 304.05 107.834C303.086 113.869 300.429 119.506 296.389 124.09C311.686 124.81 328.033 135.166 328.997 150.449C329.659 160.633 323.243 170.27 314.908 176.11C306.572 181.95 296.417 184.633 286.456 186.826C257.372 193.249 152.139 220.125 171.119 161.1Z" fill="#333333"/>
<path d="M140.143 286.759C145.74 286.759 150.277 278.251 150.277 267.757C150.277 257.263 145.74 248.756 140.143 248.756C134.546 248.756 130.01 257.263 130.01 267.757C130.01 278.251 134.546 286.759 140.143 286.759Z" fill="#FDB797"/>
<path d="M358.017 286.759C363.613 286.759 368.15 278.251 368.15 267.757C368.15 257.263 363.613 248.756 358.017 248.756C352.42 248.756 347.883 257.263 347.883 267.757C347.883 278.251 352.42 286.759 358.017 286.759Z" fill="#FDB797"/>
</svg>
