<svg width="32" height="43" viewBox="0 0 32 43" fill="none" xmlns="http://www.w3.org/2000/svg">
<path d="M11.5098 6.45786C11.5098 4.27036 12.0664 2.69321 13.1797 1.72641C14.3223 0.740082 16.1533 0.246918 18.6729 0.246918H19.5664V10.7791C19.5664 15.3202 18.2676 18.2303 15.6699 19.5096C14.7617 19.9588 13.6729 20.1834 12.4033 20.1834H11.5098V6.45786ZM8.05273 20.1834C5.60156 20.1834 3.77539 19.3289 2.57422 17.62C1.46094 16.0379 0.904297 13.7577 0.904297 10.7791V0.246918H1.79785C4.31738 0.246918 6.14844 0.740082 7.29102 1.72641C8.4043 2.69321 8.96094 4.27036 8.96094 6.45786V20.1834H8.05273ZM23.7998 0.246918H31.6807V20.1834H23.7998V0.246918ZM11.4951 22.2469H12.8135C16.4072 22.2469 18.5508 23.4627 19.2441 25.8944C19.4785 26.6952 19.5957 27.6131 19.5957 28.6483V42.1834H11.4951V22.2469ZM0.860352 22.2469H8.74121V42.1834H0.860352V22.2469ZM23.7998 22.2469H31.6807V42.1834H23.7998V22.2469Z" fill="#319795"/>
</svg>
