<svg width="30" height="30" viewBox="0 0 30 30" fill="none" xmlns="http://www.w3.org/2000/svg">
<g id="collections_24px">
<path id="icon/image/collections_24px" fill-rule="evenodd" clip-rule="evenodd" d="M10 2.5H25C26.375 2.5 27.5 3.625 27.5 5V20C27.5 21.375 26.375 22.5 25 22.5H10C8.625 22.5 7.5 21.375 7.5 20V5C7.5 3.625 8.625 2.5 10 2.5ZM25 20V5H10V20H25ZM14.375 14.5875L16.4875 17.4125L19.5875 13.5375L23.75 18.75H11.25L14.375 14.5875ZM2.5 25V7.5H5V25H22.5V27.5H5C3.625 27.5 2.5 26.375 2.5 25Z" fill="#805AD5"/>
</g>
</svg>
