<svg width="24" height="24" viewBox="0 0 24 24" fill="none" xmlns="http://www.w3.org/2000/svg">
<path d="M9 11.75C8.66848 11.75 8.35054 11.8817 8.11612 12.1161C7.8817 12.3505 7.75 12.6685 7.75 13C7.75 13.3315 7.8817 13.6495 8.11612 13.8839C8.35054 14.1183 8.66848 14.25 9 14.25C9.16415 14.25 9.3267 14.2177 9.47835 14.1548C9.63001 14.092 9.76781 14 9.88388 13.8839C9.99996 13.7678 10.092 13.63 10.1548 13.4784C10.2177 13.3267 10.25 13.1642 10.25 13C10.25 12.8358 10.2177 12.6733 10.1548 12.5216C10.092 12.37 9.99996 12.2322 9.88388 12.1161C9.76781 12 9.63001 11.908 9.47835 11.8452C9.3267 11.7823 9.16415 11.75 9 11.75ZM15 11.75C14.6685 11.75 14.3505 11.8817 14.1161 12.1161C13.8817 12.3505 13.75 12.6685 13.75 13C13.75 13.3315 13.8817 13.6495 14.1161 13.8839C14.3505 14.1183 14.6685 14.25 15 14.25C15.3315 14.25 15.6495 14.1183 15.8839 13.8839C16.1183 13.6495 16.25 13.3315 16.25 13C16.25 12.6685 16.1183 12.3505 15.8839 12.1161C15.6495 11.8817 15.3315 11.75 15 11.75ZM12 2C10.6868 2 9.38642 2.25866 8.17317 2.7612C6.95991 3.26375 5.85752 4.00035 4.92893 4.92893C3.05357 6.8043 2 9.34784 2 12C2 14.6522 3.05357 17.1957 4.92893 19.0711C5.85752 19.9997 6.95991 20.7362 8.17317 21.2388C9.38642 21.7413 10.6868 22 12 22C14.6522 22 17.1957 20.9464 19.0711 19.0711C20.9464 17.1957 22 14.6522 22 12C22 10.6868 21.7413 9.38642 21.2388 8.17317C20.7362 6.95991 19.9997 5.85752 19.0711 4.92893C18.1425 4.00035 17.0401 3.26375 15.8268 2.7612C14.6136 2.25866 13.3132 2 12 2V2ZM12 20C7.59 20 4 16.41 4 12C4 11.71 4 11.42 4.05 11.14C6.41 10.09 8.28 8.16 9.26 5.77C11.07 8.33 14.05 10 17.42 10C18.2 10 18.95 9.91 19.67 9.74C19.88 10.45 20 11.21 20 12C20 16.41 16.41 20 12 20Z" fill="#805AD5"/>
</svg>
